<svg width="652" height="1391" viewBox="0 0 652 1391" fill="none" xmlns="http://www.w3.org/2000/svg">
<path d="M859.937 423.374C503.565 214.245 391.097 635.257 429.48 827.232C467.862 1019.2 570.221 828.962 910.108 1045.57C1078.53 1152.62 1366.34 739.299 1327.9 547.027C1303.36 424.296 1216.9 457.8 1093.86 459.435C1023.88 460.673 948.523 476.956 859.937 423.374Z" stroke="#CBD5E1" stroke-width="0.5" stroke-miterlimit="10"/>
<path d="M903.492 1079.18C1091.14 1155 1364.57 762.565 1324.17 560.488C1299.27 435.973 1211.57 448.715 1089.03 440.093C1012.59 434.504 920.684 428.036 826.638 387.2C469.406 234.417 368.201 642.395 408.604 844.472C433.261 967.797 489.567 951.899 608.237 979.399C638.334 986.139 675.427 995.678 713.519 1007.83C786.264 1035.65 828.237 1048.61 903.492 1079.18Z" stroke="#CBD5E1" stroke-width="0.5" stroke-miterlimit="10"/>
<path d="M903.117 1094.31C1111.02 1138.58 1369.1 767.646 1326.68 555.464C1301.37 428.87 1212.71 420.448 1090.44 402.271C1007.2 389.957 906.727 386.152 805.05 358.102C450.068 260.761 341.279 635.788 383.702 847.97C408.063 969.812 464.642 974.316 578.44 1008.38C610.16 1017.78 645.153 1028.99 684.957 1040.61C748.677 1058.99 821.78 1076.99 903.117 1094.31V1094.31Z" stroke="#CBD5E1" stroke-width="0.5" stroke-miterlimit="10"/>
<path d="M906.74 1112.44C1135.41 1124.05 1377.23 775.534 1332.85 553.547C1307.18 425.17 1217.33 394.39 1095.51 367.552C1005.68 347.815 897.274 346.162 787.173 332.413C447.937 290.146 318.078 632.586 362.462 854.573C386.526 974.928 447.205 999.938 556.353 1039.87C590.094 1052.11 626.472 1064.79 667.647 1075.98C738.814 1095.2 819.543 1107.67 906.74 1112.44Z" stroke="#CBD5E1" stroke-width="0.5" stroke-miterlimit="10"/>
<path d="M910.306 1130.27C1159.96 1108.53 1385.64 783.022 1339.24 550.93C1313.15 420.471 1222.79 367.125 1100.8 332.134C1004.68 304.568 889.122 303.56 769.869 305.912C448.789 312.608 295.444 628.575 341.848 860.666C365.555 979.238 429.824 1025.86 534.948 1071.14C570.373 1086.33 608.819 1100.26 651.022 1111.13C728.888 1131.11 817.308 1138.35 910.306 1130.27V1130.27Z" stroke="#CBD5E1" stroke-width="0.5" stroke-miterlimit="10"/>
<path d="M913.934 1148.4C1184.06 1092.52 1394.11 790.803 1345.75 548.907C1319.31 416.664 1228.66 340.051 1106.21 297.31C1004.08 261.512 880.554 258.878 752.336 280.112C448.351 330.422 272.585 625.263 321.009 867.459C344.419 984.545 411.939 1052.88 513.322 1103.12C550.085 1121.36 590.601 1136.54 634.575 1147.18C718.968 1167.03 815.013 1168.73 913.934 1148.4Z" stroke="#CBD5E1" stroke-width="0.5" stroke-miterlimit="10"/>
<path d="M736.839 252.336C446.309 342.651 251.754 619.979 302.139 871.981C325.252 987.58 396.025 1077.63 493.667 1132.82C531.827 1154.41 574.355 1170.55 619.7 1180.76C711.137 1201.26 814.468 1197.54 919.305 1164.95C1209.84 1074.64 1404.39 797.311 1354.01 545.31C1303.62 293.308 1027.37 162.02 736.839 252.336Z" stroke="#CBD5E1" stroke-width="0.5" stroke-miterlimit="10"/>
<path d="M283.352 875.693C306.941 993.672 378.811 1085.59 478.808 1141.62C517.771 1163.6 561.102 1180.12 607.194 1190.41C700.52 1211.27 805.686 1207.62 912.921 1174.28C1209.28 1082.16 1407.79 799.177 1356.4 542.123C1305 285.069 1023.19 151.409 726.83 243.535C430.475 335.661 231.957 618.639 283.352 875.693V875.693Z" stroke="#CBD5E1" stroke-width="0.5" stroke-miterlimit="10"/>
<path d="M266.594 877.43C290.598 997.488 363.974 1091.47 465.636 1148.56C505.405 1170.92 549.54 1187.81 596.777 1198.38C691.653 1219.71 799.333 1215.9 908.627 1181.93C1210.8 1087.99 1413.29 799.362 1360.88 537.256C1308.48 275.15 1021.03 138.822 718.852 232.758C416.672 326.694 214.189 615.324 266.594 877.43V877.43Z" stroke="#CBD5E1" stroke-width="0.5" stroke-miterlimit="10"/>
<path d="M249.495 879.272C273.974 1001.71 348.795 1097.45 452.469 1155.49C493.04 1178.23 537.981 1195.51 585.959 1206.16C682.727 1227.85 792.241 1224.1 903.587 1189.49C1211.59 1093.74 1417.75 799.867 1364.34 532.709C1310.92 265.553 1018.25 126.746 710.248 222.494C402.245 318.24 196.08 612.117 249.495 879.272V879.272Z" stroke="#CBD5E1" stroke-width="0.5" stroke-miterlimit="10"/>
<path d="M232.397 881.115C257.352 1005.93 333.556 1103.13 438.955 1162.53C480.332 1185.65 526.075 1203.31 574.86 1214.35C673.518 1236.39 785.205 1232.6 898.61 1197.35C1212.44 1099.79 1422.57 800.266 1368.14 528.055C1313.72 255.847 1015.41 114.369 701.587 211.927C387.759 309.484 178.032 609.204 232.397 881.115Z" stroke="#CBD5E1" stroke-width="0.5" stroke-miterlimit="10"/>
<path d="M204.358 883.262C229.788 1010.45 307.436 1109.41 414.906 1170.07C457.086 1193.57 503.632 1211.61 553.507 1222.62C654.055 1245.02 767.517 1241 882.973 1205.11C1202.29 1105.85 1416.38 800.669 1361 523.705C1305.62 246.741 1001.7 102.594 682.385 201.857C363.076 301.118 148.926 605.998 204.362 883.261L204.358 883.262Z" stroke="#CBD5E1" stroke-width="0.5" stroke-miterlimit="10"/>
<path d="M666.94 185.079C992.204 83.9659 1301.61 230.709 1358.02 512.837C1414.42 794.966 1196.48 1105.64 871.212 1206.76C545.948 1307.87 236.544 1161.12 180.136 878.997C123.727 596.868 341.675 286.191 666.94 185.079Z" stroke="#CBD5E1" stroke-width="0.5" stroke-miterlimit="10"/>
</svg>
