<?xml version="1.0" encoding="utf-8"?>
<!-- Generator: Adobe Illustrator 26.3.1, SVG Export Plug-In . SVG Version: 6.00 Build 0)  -->
<svg version="1.1" id="Layer_1" xmlns="http://www.w3.org/2000/svg" xmlns:xlink="http://www.w3.org/1999/xlink" x="0px" y="0px"
	 viewBox="0 0 671 1231" style="enable-background:new 0 0 671 1231;" xml:space="preserve">
<style type="text/css">
	.st0{fill:none;stroke:#CBD5E1;stroke-width:0.5;stroke-miterlimit:10;}
</style>
<path class="st0" d="M-0.2,1111.5c242.8-65.3,176.1-401.2,78-537.6c-29.9-41.6-53-57.5-78-59.4"/>
<path class="st0" d="M-0.3,1125.1c271.3-73.9,198.4-424.7,90-575.5C57,504.2,30,486.4-0.3,482.8"/>
<path class="st0" d="M-0.3,1139.6c285.4-94.2,228.7-440.1,111.2-603.5c-38.3-53.3-71.3-73-111.2-77.5"/>
<path class="st0" d="M-0.4,1156.6c281-119.4,253.9-460,127.9-635.3c-41.1-57.1-80.1-80.7-127.8-88.8"/>
<path class="st0" d="M-0.4,1181.2c273.6-144,279.7-485.4,144.1-673.9c-43.1-59.9-88.8-89.2-144-102.4"/>
<path class="st0" d="M-0.2,1212.3c3.4-2.2,6.8-4.5,10.2-6.7C266,1034.1,304.1,693,159.9,492.4c-44.8-62.3-97.8-98.7-160-117.8"/>
<path class="st0" d="M28.2,1230.9c2.5-2.1,4.9-4.3,7.4-6.5c227.2-202.3,289.7-535.3,139.6-743.9C129.1,416.4,68.3,371.6-0.4,346"/>
<path class="st0" d="M45.2,1231.1c1-0.9,2.1-1.8,3.1-2.8c231.8-206.4,295.5-546.1,142.5-758.9l0,0C141.1,400.3,74.9,353.1,0,328"/>
<path class="st0" d="M64.1,1231.2c233-210.8,296.5-554.6,141.3-770.4l0,0C152.5,387.4,80.9,338,0.2,313.3"/>
<path class="st0" d="M82.5,1231.2c232.3-215.3,294.4-561.1,137.6-779.1l0,0C163.8,373.8,86.6,322.4-0.2,298.5"/>
<path class="st0" d="M101.3,1231.1c231.5-219.8,291.8-567.9,133.7-787.8C175.2,360.3,92.7,307.2,0,284.1"/>
<path class="st0" d="M124.2,1231.2C359,1007.6,420.6,653.7,259.6,429.8l0,0C194.4,339.2,102.6,283.6-0.1,263"/>
<path class="st0" d="M-0.2,250.5C112.1,268,213,325.9,283.4,423.7c161.8,225,102.8,579.3-129,807.5"/>
</svg>
