<?xml version="1.0" encoding="utf-8"?>
<!-- Generator: Adobe Illustrator 26.3.1, SVG Export Plug-In . SVG Version: 6.00 Build 0)  -->
<svg version="1.1" id="Layer_1" xmlns="http://www.w3.org/2000/svg" xmlns:xlink="http://www.w3.org/1999/xlink" x="0px" y="0px"
	 viewBox="0 0 1232 567" style="enable-background:new 0 0 1232 567;" xml:space="preserve">
<style type="text/css">
	.st0{opacity:0.6;}
	.st1{fill:none;stroke:url(#SVGID_1_);stroke-width:0.5;stroke-miterlimit:10;stroke-opacity:0.6;}
	
		.st2{fill:none;stroke:url(#SVGID_00000147187078714566208610000005770068158761675395_);stroke-width:0.5;stroke-miterlimit:10;stroke-opacity:0.65;}
	
		.st3{fill:none;stroke:url(#SVGID_00000077295952026149467780000003385040977067143579_);stroke-width:0.5;stroke-miterlimit:10;stroke-opacity:0.7;}
	
		.st4{fill:none;stroke:url(#SVGID_00000051372965880606669740000001678616329779938445_);stroke-width:0.5;stroke-miterlimit:10;stroke-opacity:0.8;}
	
		.st5{fill:none;stroke:url(#SVGID_00000012466149489844022910000001853437622476299654_);stroke-width:0.5;stroke-miterlimit:10;stroke-opacity:0.85;}
	
		.st6{fill:none;stroke:url(#SVGID_00000039842355285932554270000009053752977692167069_);stroke-width:0.5;stroke-miterlimit:10;stroke-opacity:0.9;}
	
		.st7{fill:none;stroke:url(#SVGID_00000115483563044286151720000005043280210332785296_);stroke-width:0.5;stroke-miterlimit:10;stroke-opacity:0.9;}
	
		.st8{fill:none;stroke:url(#SVGID_00000178911958536428684490000011204720868450718376_);stroke-width:0.5;stroke-miterlimit:10;stroke-opacity:0.9;}
	
		.st9{fill:none;stroke:url(#SVGID_00000168077010238787314090000012748660584313029520_);stroke-width:0.5;stroke-miterlimit:10;stroke-opacity:0.9;}
	
		.st10{fill:none;stroke:url(#SVGID_00000067233739658813839790000000393351596044840370_);stroke-width:0.5;stroke-miterlimit:10;stroke-opacity:0.9;}
	
		.st11{fill:none;stroke:url(#SVGID_00000098210483468598287830000001151855219044958347_);stroke-width:0.5;stroke-miterlimit:10;stroke-opacity:0.9;}
	
		.st12{fill:none;stroke:url(#SVGID_00000168107163610835888140000006904943327552365725_);stroke-width:0.5;stroke-miterlimit:10;stroke-opacity:0.9;}
	
		.st13{fill:none;stroke:url(#SVGID_00000016763150681749332200000000008741890893554829_);stroke-width:0.5;stroke-miterlimit:10;stroke-opacity:0.9;}
	
		.st14{fill:none;stroke:url(#SVGID_00000033338906805431106650000012396851529019343287_);stroke-width:0.5;stroke-miterlimit:10;stroke-opacity:0.9;}
	
		.st15{fill:none;stroke:url(#SVGID_00000160161726172191566230000009368091584082177695_);stroke-width:0.5;stroke-miterlimit:10;stroke-opacity:0.9;}
	
		.st16{fill:none;stroke:url(#SVGID_00000153700413223267155880000010664966284130431364_);stroke-width:0.5;stroke-miterlimit:10;stroke-opacity:0.9;}
	
		.st17{fill:none;stroke:url(#SVGID_00000065050012614642651650000010111728495297155716_);stroke-width:0.5;stroke-miterlimit:10;stroke-opacity:0.9;}
	
		.st18{fill:none;stroke:url(#SVGID_00000110461205074843019530000000593689287535368098_);stroke-width:0.5;stroke-miterlimit:10;stroke-opacity:0.9;}
	
		.st19{fill:none;stroke:url(#SVGID_00000119818903899170379650000016416227627571250350_);stroke-width:0.5;stroke-miterlimit:10;stroke-opacity:0.9;}
</style>
<g class="st0">
	
		<linearGradient id="SVGID_1_" gradientUnits="userSpaceOnUse" x1="517.611" y1="-370.9559" x2="517.611" y2="239.0567" gradientTransform="matrix(1 0 0 1 0 540)">
		<stop  offset="0" style="stop-color:#64748B"/>
		<stop  offset="1" style="stop-color:#64748B;stop-opacity:0"/>
	</linearGradient>
	<path class="st1" d="M861.8,789.6c23.6-20,44.3-39.5,62.3-58.7c325.7-345.7-206-558.2-476.3-558.2c-268,0-89,149.6-439.2,464.5"/>
	
		<linearGradient id="SVGID_00000023960666094086400270000004294386169883928502_" gradientUnits="userSpaceOnUse" x1="515.9238" y1="-401.1152" x2="515.9238" y2="215.0445" gradientTransform="matrix(1 0 0 1 0 540)">
		<stop  offset="0" style="stop-color:#64748B"/>
		<stop  offset="1" style="stop-color:#64748B;stop-opacity:0"/>
	</linearGradient>
	
		<path style="fill:none;stroke:url(#SVGID_00000023960666094086400270000004294386169883928502_);stroke-width:0.5;stroke-miterlimit:10;stroke-opacity:0.65;" d="
		M896.6,754.9c7.6-8.1,14.8-16.1,21.6-24.1C1244.4,351,732.7,139.1,438.4,139.1c-183.3,0-185.6,71.8-275.8,208.7
		c-22.5,34.8-52,77.2-85.6,120.4c-26.3,30.3-47.9,55.9-68.5,80.3"/>
	
		<linearGradient id="SVGID_00000178204850165795932870000003192261318844460471_" gradientUnits="userSpaceOnUse" x1="519.8498" y1="-427.8921" x2="519.8498" y2="200.0874" gradientTransform="matrix(1 0 0 1 0 540)">
		<stop  offset="0" style="stop-color:#64748B"/>
		<stop  offset="1" style="stop-color:#64748B;stop-opacity:0"/>
	</linearGradient>
	
		<path style="fill:none;stroke:url(#SVGID_00000178204850165795932870000003192261318844460471_);stroke-width:0.5;stroke-miterlimit:10;stroke-opacity:0.7;" d="
		M940.9,739.9c2.1-2.8,4.1-5.8,6.1-8.6c277.8-400.1-195.3-619-508.5-619c-181.1,0-212,67.2-309.3,196.6
		c-26.9,36-57.9,75.7-91.4,120.9c-9.5,13-19.3,26.4-29.1,40"/>
	
		<linearGradient id="SVGID_00000177444052291337654960000011747745059821451433_" gradientUnits="userSpaceOnUse" x1="517.5509" y1="-455.1838" x2="517.5509" y2="190.7833" gradientTransform="matrix(1 0 0 1 0 540)">
		<stop  offset="0" style="stop-color:#64748B"/>
		<stop  offset="1" style="stop-color:#64748B;stop-opacity:0"/>
	</linearGradient>
	
		<path style="fill:none;stroke:url(#SVGID_00000177444052291337654960000011747745059821451433_);stroke-width:0.5;stroke-miterlimit:10;stroke-opacity:0.8;" d="
		M981.4,730.7c1-2.1,2.1-4.1,3.2-6.2C1191.4,324.8,768.5,85.1,438.4,85.1c-178.9,0-240.3,67.3-343.7,189.5
		c-27.7,33-56.6,68.1-85.9,107.8c-4.4,5.9-8.8,12-13.1,18"/>
	
		<linearGradient id="SVGID_00000181060754882325288470000014311846146128492988_" gradientUnits="userSpaceOnUse" x1="531.6639" y1="-481.5745" x2="531.6639" y2="191.6529" gradientTransform="matrix(1 0 0 1 0 540)">
		<stop  offset="0" style="stop-color:#64748B"/>
		<stop  offset="1" style="stop-color:#64748B;stop-opacity:0"/>
	</linearGradient>
	
		<path style="fill:none;stroke:url(#SVGID_00000181060754882325288470000014311846146128492988_);stroke-width:0.5;stroke-miterlimit:10;stroke-opacity:0.85;" d="
		M1022,731.6c2.4-7.2,4.9-14.3,7.2-21.5C1159.6,320.4,784,58.7,438.8,58.7c-176.2,0-269.4,66.4-378.6,182.5
		c-17.4,18.5-34.5,37.8-51.5,58.2c-0.4,0.5-0.8,1-1.2,1.4"/>
	
		<linearGradient id="SVGID_00000177477371946488668130000007220584182685785529_" gradientUnits="userSpaceOnUse" x1="544.8944" y1="-508.3513" x2="544.8944" y2="191.2339" gradientTransform="matrix(1 0 0 1 0 540)">
		<stop  offset="0" style="stop-color:#64748B"/>
		<stop  offset="1" style="stop-color:#64748B;stop-opacity:0"/>
	</linearGradient>
	
		<path style="fill:none;stroke:url(#SVGID_00000177477371946488668130000007220584182685785529_);stroke-width:0.5;stroke-miterlimit:10;stroke-opacity:0.9;" d="
		M1066.5,731.2c2.3-12,4.5-24.1,6.4-36.2c61.8-379.5-274.5-663.1-634.5-663.1c-174,0-299.2,65.1-413.6,175.5
		c-5.1,5-10.3,10-15.4,15.3"/>
	
		<linearGradient id="SVGID_00000019668604838323415760000010951989496696803764_" gradientUnits="userSpaceOnUse" x1="555.2433" y1="-532.296" x2="555.2433" y2="190.8186" gradientTransform="matrix(1 0 0 1 0 540)">
		<stop  offset="0" style="stop-color:#64748B"/>
		<stop  offset="1" style="stop-color:#64748B;stop-opacity:0"/>
	</linearGradient>
	
		<path style="fill:none;stroke:url(#SVGID_00000019668604838323415760000010951989496696803764_);stroke-width:0.5;stroke-miterlimit:10;stroke-opacity:0.9;" d="
		M1116.9,730.8c1.2-15.7,1.7-31.7,1.7-47.8C1118.5,310.1,815,8,440.4,8C276.5,8,126.3,65.9,8.9,162c-5.8,4.8-11.5,9.5-17,14.4"/>
	
		<linearGradient id="SVGID_00000075127549583987363120000003824420161219934382_" gradientUnits="userSpaceOnUse" x1="140.4899" y1="-540.1432" x2="140.4899" y2="-383.5559" gradientTransform="matrix(1 0 0 1 0 540)">
		<stop  offset="0" style="stop-color:#64748B"/>
		<stop  offset="1" style="stop-color:#64748B;stop-opacity:0"/>
	</linearGradient>
	
		<path style="fill:none;stroke:url(#SVGID_00000075127549583987363120000003824420161219934382_);stroke-width:0.5;stroke-miterlimit:10;stroke-opacity:0.9;" d="
		M295.2,0.1C188.7,23.1,91.2,70.6,9.2,136.7c-7.9,6.3-15.7,12.9-23.3,19.6"/>
	
		<linearGradient id="SVGID_00000179609640453024768590000014851561090794810808_" gradientUnits="userSpaceOnUse" x1="863.4907" y1="-540.1431" x2="863.4907" y2="191.2064" gradientTransform="matrix(1 0 0 1 0 540)">
		<stop  offset="0" style="stop-color:#64748B"/>
		<stop  offset="1" style="stop-color:#64748B;stop-opacity:0"/>
	</linearGradient>
	
		<path style="fill:none;stroke:url(#SVGID_00000179609640453024768590000014851561090794810808_);stroke-width:0.5;stroke-miterlimit:10;stroke-opacity:0.9;" d="
		M1132.8,731.2c1.5-19.2,2.4-38.5,2.4-58.1c0-329.7-233-605.4-543.8-673"/>
	
		<linearGradient id="SVGID_00000108278502679181532140000016980795950346252454_" gradientUnits="userSpaceOnUse" x1="102.1409" y1="-539.8784" x2="102.1409" y2="-401.0628" gradientTransform="matrix(1 0 0 1 0 540)">
		<stop  offset="0" style="stop-color:#64748B"/>
		<stop  offset="1" style="stop-color:#64748B;stop-opacity:0"/>
	</linearGradient>
	
		<path style="fill:none;stroke:url(#SVGID_00000108278502679181532140000016980795950346252454_);stroke-width:0.5;stroke-miterlimit:10;stroke-opacity:0.9;" d="
		M222.4,0.4C144.3,26.6,72.2,66,9,116.2c-9.1,7.3-18.2,14.8-27,22.5"/>
	
		<linearGradient id="SVGID_00000126292075871841118850000017102692753962192528_" gradientUnits="userSpaceOnUse" x1="913.3623" y1="-540.2646" x2="913.3623" y2="190.6941" gradientTransform="matrix(1 0 0 1 0 540)">
		<stop  offset="0" style="stop-color:#64748B"/>
		<stop  offset="1" style="stop-color:#64748B;stop-opacity:0"/>
	</linearGradient>
	
		<path style="fill:none;stroke:url(#SVGID_00000126292075871841118850000017102692753962192528_);stroke-width:0.5;stroke-miterlimit:10;stroke-opacity:0.9;" d="
		M1150.9,730.7c1.9-21.2,3-42.9,3-64.6c0-309.5-201.7-572.5-481.1-666.1"/>
	
		<linearGradient id="SVGID_00000132069749305067897650000005247382641634599324_" gradientUnits="userSpaceOnUse" x1="73.699" y1="-539.8713" x2="73.699" y2="-418.7008" gradientTransform="matrix(1 0 0 1 0 540)">
		<stop  offset="0" style="stop-color:#64748B"/>
		<stop  offset="1" style="stop-color:#64748B;stop-opacity:0"/>
	</linearGradient>
	
		<path style="fill:none;stroke:url(#SVGID_00000132069749305067897650000005247382641634599324_);stroke-width:0.5;stroke-miterlimit:10;stroke-opacity:0.9;" d="
		M169.4,0.4C111.6,25.1,57.8,57.1,9.1,95.2c-10.6,8.4-21,17-31,25.9"/>
	
		<linearGradient id="SVGID_00000022524500671653225130000000971591338111766687_" gradientUnits="userSpaceOnUse" x1="953.5825" y1="-540.5148" x2="953.5825" y2="191.3404" gradientTransform="matrix(1 0 0 1 0 540)">
		<stop  offset="0" style="stop-color:#64748B"/>
		<stop  offset="1" style="stop-color:#64748B;stop-opacity:0"/>
	</linearGradient>
	
		<path style="fill:none;stroke:url(#SVGID_00000022524500671653225130000000971591338111766687_);stroke-width:0.5;stroke-miterlimit:10;stroke-opacity:0.9;" d="
		M1168.2,731.3c2.4-24.1,3.7-48.5,3.7-73.3C1172,363.1,991,109.3,735-0.3"/>
	
		<linearGradient id="SVGID_00000167392774454951881230000007844715759779620282_" gradientUnits="userSpaceOnUse" x1="49.6978" y1="-539.4781" x2="49.6978" y2="-436.7231" gradientTransform="matrix(1 0 0 1 0 540)">
		<stop  offset="0" style="stop-color:#64748B"/>
		<stop  offset="1" style="stop-color:#64748B;stop-opacity:0"/>
	</linearGradient>
	
		<path style="fill:none;stroke:url(#SVGID_00000167392774454951881230000007844715759779620282_);stroke-width:0.5;stroke-miterlimit:10;stroke-opacity:0.9;" d="
		M125.4,0.7C84.5,21.5,45.9,45.9,9.9,73.6c-12.2,9.5-24.2,19.3-35.8,29.5"/>
	
		<linearGradient id="SVGID_00000180339493324728412180000013270115901018403755_" gradientUnits="userSpaceOnUse" x1="989.8785" y1="-540.3794" x2="989.8785" y2="191.4715" gradientTransform="matrix(1 0 0 1 0 540)">
		<stop  offset="0" style="stop-color:#64748B"/>
		<stop  offset="1" style="stop-color:#64748B;stop-opacity:0"/>
	</linearGradient>
	
		<path style="fill:none;stroke:url(#SVGID_00000180339493324728412180000013270115901018403755_);stroke-width:0.5;stroke-miterlimit:10;stroke-opacity:0.9;" d="
		M1186,731.4c3-26.6,4.5-53.8,4.5-81.2c0-283.9-163.8-530-401.4-650.4"/>
	
		<linearGradient id="SVGID_00000172428599151595184880000012960532102287689657_" gradientUnits="userSpaceOnUse" x1="28.0764" y1="-539.2139" x2="28.0764" y2="-454.3599" gradientTransform="matrix(1 0 0 1 0 540)">
		<stop  offset="0" style="stop-color:#64748B"/>
		<stop  offset="1" style="stop-color:#64748B;stop-opacity:0"/>
	</linearGradient>
	
		<path style="fill:none;stroke:url(#SVGID_00000172428599151595184880000012960532102287689657_);stroke-width:0.5;stroke-miterlimit:10;stroke-opacity:0.9;" d="
		M87,1C59.7,16.8,33.6,34.3,8.6,53.3c-13.5,10.3-26.6,21-39.4,32.2"/>
	
		<linearGradient id="SVGID_00000074437158624488739480000009600916446818332802_" gradientUnits="userSpaceOnUse" x1="1022.1205" y1="-540.1154" x2="1022.1205" y2="191.0875" gradientTransform="matrix(1 0 0 1 0 540)">
		<stop  offset="0" style="stop-color:#64748B"/>
		<stop  offset="1" style="stop-color:#64748B;stop-opacity:0"/>
	</linearGradient>
	
		<path style="fill:none;stroke:url(#SVGID_00000074437158624488739480000009600916446818332802_);stroke-width:0.5;stroke-miterlimit:10;stroke-opacity:0.9;" d="
		M1202.9,731.1c3.5-29,5.3-58.4,5.3-88.3c0-274.5-149.6-514.2-372.2-642.6"/>
	
		<linearGradient id="SVGID_00000150813918591133075190000013087633850811085744_" gradientUnits="userSpaceOnUse" x1="1052.0465" y1="-541.0106" x2="1052.0465" y2="191.6041" gradientTransform="matrix(1 0 0 1 0 540)">
		<stop  offset="0" style="stop-color:#64748B"/>
		<stop  offset="1" style="stop-color:#64748B;stop-opacity:0"/>
	</linearGradient>
	
		<path style="fill:none;stroke:url(#SVGID_00000150813918591133075190000013087633850811085744_);stroke-width:0.5;stroke-miterlimit:10;stroke-opacity:0.9;" d="
		M877.3-0.8c210.2,134.5,349.4,369.3,349.4,636.5c0,32.6-2.1,64.5-6.1,95.9"/>
	
		<linearGradient id="SVGID_00000112596974765913101660000017452022139244115846_" gradientUnits="userSpaceOnUse" x1="31.565" y1="-539.4307" x2="31.565" y2="-506.8761" gradientTransform="matrix(1 0 0 1 0 540)">
		<stop  offset="0" style="stop-color:#64748B"/>
		<stop  offset="1" style="stop-color:#64748B;stop-opacity:0"/>
	</linearGradient>
	
		<path style="fill:none;stroke:url(#SVGID_00000112596974765913101660000017452022139244115846_);stroke-width:0.5;stroke-miterlimit:10;stroke-opacity:0.9;" d="
		M8.6,32.9c14.9-11.2,30.3-22,46-32.2"/>
</g>
</svg>
