<?xml version="1.0" encoding="utf-8"?>
<!-- Generator: Adobe Illustrator 26.3.1, SVG Export Plug-In . SVG Version: 6.00 Build 0)  -->
<svg version="1.1" id="Layer_1" xmlns="http://www.w3.org/2000/svg" xmlns:xlink="http://www.w3.org/1999/xlink" x="0px" y="0px"
	 viewBox="0 0 896 1493" style="enable-background:new 0 0 896 1493;" xml:space="preserve">
<style type="text/css">
	.st0{fill:none;stroke:#CBD5E1;stroke-width:0.5;stroke-miterlimit:10;}
</style>
<path class="st0" d="M-0.4,1032.8c52.7,18.5,112.2,46.5,182.4,91.3c181.1,115.1,490.5-329.3,449.1-536
	c-26.4-131.9-119.3-95.9-251.6-94.2c-75.2,1.3-156.2,18.8-251.5-38.8c-46.9-27.5-89-44.6-128.2-53.5"/>
<path class="st0" d="M-0.1,1077.4c70.5,26.6,113.6,40.4,189.9,71.4c201.7,81.5,495.7-340.4,452.2-557.6
	C615.3,457.3,521,471,389.3,461.8c-82.2-6-181-13-282.1-56.9c-39-16.7-74.1-26.9-107.5-32"/>
<path class="st0" d="M-0.3,1121.9c58.8,15.9,122.8,31.2,194,46.4l0,0c223.5,47.6,500.9-351.2,455.3-579.3
	c-27.2-136.1-122.5-145.1-254-164.7c-89.5-13.2-197.5-17.3-306.8-47.5c-31.8-8.7-60.5-13.8-88.7-15.8"/>
<path class="st0" d="M-0.3,1162.5c61.4,12.9,127.1,21.4,197.9,25.3c245.8,12.5,505.8-362.2,458.1-600.8
	c-27.6-138-124.2-171.1-255.1-200c-96.6-21.2-213.1-23-331.5-37.8c-24.5-3.1-46.9-4.4-69.4-3.8"/>
<path class="st0" d="M-0.6,1201.9c63.8,9.5,131,11.3,202,5.1l0,0c268.4-23.4,511-373.3,461.1-622.8
	c-28-140.2-125.2-197.6-256.3-235.2c-103.3-29.6-278.4-30.9-406.6-28.3"/>
<path class="st0" d="M-0.2,1239.7c65.6,5.3,134.4,1.3,205.6-13.3C495.7,1166.4,721.6,842,669.6,582
	c-28.4-142.2-125.9-224.5-257.5-270.5C302.3,273,169.5,270.2,31.6,293c-11.2,1.9-20.9,3.8-31.8,6.3"/>
<path class="st0" d="M0,1274.6c68.6,2,138.2-7.7,211.1-30.4c312.3-97.1,521.5-395.2,467.3-666.1c-54.2-270.9-351.1-412-663.5-315
	c-5.6,1.7-9.9,3.2-15.3,5.1"/>
<path class="st0" d="M0,1285.5c66.4,0.7,133.8-9.3,204.3-31.2c318.6-99,532-403.2,476.8-679.6c-55.3-276.3-358.2-420-676.8-321
	c-2,0.6-2.6,0.8-4.6,1.4"/>
<path class="st0" d="M0,1294.4c65.1-0.3,131-10.5,199.7-31.9c324.8-101,542.5-411.3,486.2-693C629.7,288.6,323.5,142-0.2,241"/>
<path class="st0" d="M0.1,1302.9c63.3-1.2,127.5-11.6,194.1-32.3C525.3,1167.7,747,851.8,689.5,564.6
	C632.9,281.2,326.1,132.1-0.2,227.1"/>
<path class="st0" d="M-0.1,1311.7c61.8-2,124.3-12.6,189-32.7c337.4-104.9,563.3-426.9,504.8-719.5
	C636.4,273.4,328.8,121.7-0.2,213.1"/>
<path class="st0" d="M-0.4,1320.4c60.3-2.7,121.3-13.5,184.3-33c343.3-106.7,573.4-434.8,513.9-732.5
	c-57.7-288.7-366.3-443.2-698-355"/>
<path class="st0" d="M-0.2,186c334.8-85.2,644.5,71.9,702.8,363.6c60.6,303.3-173.7,637.3-523.3,746c-61.1,19-120.7,29.9-179.4,33.2
	"/>
</svg>
