<svg width="251" height="184" viewBox="0 0 251 184" fill="none" xmlns="http://www.w3.org/2000/svg">
<path d="M238.406 31.0151C238.406 25.1591 236.072 19.5429 231.919 15.4021C227.766 11.2613 222.132 8.93506 216.259 8.93506C210.385 8.93506 204.752 11.2613 200.598 15.4021C196.445 19.5429 194.112 25.1591 194.112 31.0151V148.746C194.112 154.602 196.445 160.218 200.598 164.359C204.752 168.499 210.385 170.826 216.259 170.826C222.132 170.826 227.766 168.499 231.919 164.359C236.072 160.218 238.406 154.602 238.406 148.746V31.0151Z" fill="url(#paint0_linear_143_616)"/>
<path d="M145.772 31.015C145.666 25.2298 143.286 19.7173 139.145 15.6633C135.004 11.6094 129.432 9.33813 123.629 9.33813C117.825 9.33813 112.253 11.6094 108.112 15.6633C103.971 19.7173 101.591 25.2298 101.485 31.015V148.746C101.591 154.531 103.971 160.043 108.112 164.097C112.253 168.151 117.825 170.422 123.629 170.422C129.432 170.422 135.004 168.151 139.145 164.097C143.286 160.043 145.666 154.531 145.772 148.746V31.015Z" fill="#4338CA"/>
<path d="M233.711 44.5942C235.549 42.3154 236.916 39.6951 237.73 36.8854C238.545 34.0757 238.791 31.1327 238.456 28.2272C238.12 25.3218 237.208 22.5118 235.774 19.9604C234.34 17.409 232.412 15.1671 230.102 13.3649C227.791 11.5626 225.145 10.2359 222.316 9.46184C219.487 8.68776 216.532 8.48172 213.622 8.85567C210.713 9.22963 207.907 10.1761 205.367 11.6402C202.828 13.1043 200.605 15.0568 198.829 17.3843L106.365 135.211C102.923 139.835 101.429 145.617 102.202 151.324C102.975 157.03 105.954 162.21 110.503 165.758C115.052 169.307 120.812 170.943 126.554 170.318C132.295 169.693 137.565 166.856 141.239 162.413L233.711 44.5942Z" fill="url(#paint1_linear_143_616)"/>
<path d="M140.988 44.6016C144.514 39.9824 146.073 34.165 145.328 28.4083C144.584 22.6516 141.596 17.4187 137.011 13.8419C132.425 10.2652 126.612 8.63226 120.828 9.29661C115.045 9.96095 109.756 12.8691 106.107 17.3917L13.6426 135.203C11.8039 137.482 10.4375 140.102 9.62298 142.912C8.80841 145.722 8.56186 148.665 8.89762 151.57C9.23339 154.476 10.1448 157.286 11.5789 159.837C13.013 162.388 14.9412 164.63 17.2516 166.433C19.562 168.235 22.2085 169.562 25.0375 170.336C27.8664 171.11 30.8214 171.316 33.7309 170.942C36.6404 170.568 39.4464 169.621 41.9859 168.157C44.5254 166.693 46.7479 164.741 48.5243 162.413L140.988 44.6016Z" fill="url(#paint2_linear_143_616)"/>
<defs>
<linearGradient id="paint0_linear_143_616" x1="216.259" y1="8.93506" x2="216.259" y2="170.826" gradientUnits="userSpaceOnUse">
<stop stop-color="#4338CA"/>
<stop offset="1" stop-color="#6A5FF3"/>
</linearGradient>
<linearGradient id="paint1_linear_143_616" x1="229.909" y1="13.6013" x2="110.61" y2="166.547" gradientUnits="userSpaceOnUse">
<stop stop-color="#8689FF"/>
<stop offset="1" stop-color="#6366F1"/>
</linearGradient>
<linearGradient id="paint2_linear_143_616" x1="137.194" y1="13.6087" x2="17.8874" y2="166.555" gradientUnits="userSpaceOnUse">
<stop stop-color="#8486FF"/>
<stop offset="1" stop-color="#6366F1"/>
</linearGradient>
</defs>
</svg>
