<svg xmlns="http://www.w3.org/2000/svg" width="597" height="313" fill="none" viewBox="0 0 597 313">
    <path stroke="url(#a)" stroke-miterlimit="10" stroke-width=".5"
        d="M421.705 175.706C191.933 40.87 119.419 312.318 144.166 436.095c24.748 123.774 90.744 1.115 309.887 140.776C562.641 645.889 748.21 379.4 723.424 255.432c-15.821-79.132-71.567-57.529-150.895-56.476-45.122.799-93.708 11.297-150.824-23.25Z" />
    <path stroke="url(#b)" stroke-miterlimit="10" stroke-width=".5"
        d="M458.699 591.718c120.988 48.881 297.282-204.142 271.232-334.432-16.051-80.281-72.596-72.065-151.603-77.625-49.288-3.603-108.544-7.773-169.18-34.103-230.327-98.506-295.579 164.539-269.529 294.828 15.898 79.514 52.201 69.264 128.714 86.995 19.405 4.345 43.32 10.495 67.881 18.328 46.902 17.937 73.964 26.293 122.485 46.009Z" />
    <path stroke="url(#c)" stroke-miterlimit="10" stroke-width=".5"
        d="M461.037 603.406c134.047 28.539 300.444-210.62 273.091-347.425-16.319-81.622-73.481-87.052-152.312-98.772-53.674-7.939-118.452-10.392-184.008-28.477C168.932 65.971 98.79 307.77 126.143 444.575c15.706 78.558 52.186 81.462 125.557 103.426 20.451 6.056 43.014 13.289 68.677 20.778 41.084 11.853 88.217 23.455 140.66 34.627Z" />
    <path stroke="url(#d)" stroke-miterlimit="10" stroke-width=".5"
        d="M463.373 615.094c147.436 7.488 303.349-217.222 274.732-360.349-16.549-82.771-74.482-102.617-153.022-119.921-57.916-12.725-127.813-13.79-198.802-22.656-218.723-27.251-302.45 193.538-273.833 336.664 15.515 77.6 54.638 93.725 125.012 119.47 21.754 7.89 45.209 16.066 71.757 23.281 45.885 12.396 97.935 20.433 154.156 23.511Z" />
    <path stroke="url(#e)" stroke-miterlimit="10" stroke-width=".5"
        d="M465.671 626.59c160.967-14.018 306.474-223.89 276.555-373.532-16.818-84.114-75.078-118.509-153.732-141.069-61.974-17.773-136.481-18.423-213.37-16.907C168.108 99.4 69.238 303.12 99.157 452.761c15.285 76.45 56.723 106.508 124.502 135.705 22.84 9.791 47.628 18.774 74.838 25.783 50.205 12.884 107.214 17.549 167.174 12.341Z" />
    <path stroke="url(#f)" stroke-miterlimit="10" stroke-width=".5"
        d="M468.011 638.277c174.161-36.028 309.595-230.56 278.412-386.524-17.048-85.264-75.492-134.66-154.44-162.217-65.851-23.08-145.494-24.78-228.163-11.088C167.825 110.885 54.5 300.983 85.72 457.14c15.095 75.491 58.628 119.551 123.995 151.942 23.703 11.762 49.826 21.548 78.178 28.405 54.413 12.799 116.338 13.899 180.118.789Z" />
    <path stroke="url(#g)" stroke-miterlimit="10" stroke-width=".5"
        d="M57.37 462.45c15.209 76.067 61.547 135.331 126.021 171.459 25.121 14.17 53.059 24.819 82.777 31.455 60.172 13.448 127.978 11.094 197.119-10.399 191.075-59.399 319.07-241.85 285.933-407.586C716.083 81.643 534.379-4.534 343.304 54.864 152.228 114.262 24.234 296.713 57.37 462.45Z" />
    <path stroke="url(#h)" stroke-miterlimit="10" stroke-width=".5"
        d="M36.355 464.758c15.783 78.94 64.024 140.669 130.868 178.094 26.158 14.66 55.134 25.801 86.068 32.67 62.392 13.979 133.001 11.566 204.791-10.751 198.588-61.733 331.511-251.21 297.072-423.461-34.44-172.25-223.14-261.745-421.728-200.012-198.585 61.733-331.51 251.21-297.071 423.46Z" />
    <path stroke="url(#i)" stroke-miterlimit="10" stroke-width=".5"
        d="M28.588 465.946c16.09 80.474 65.223 143.144 133.179 181.445 26.678 14.907 56.171 26.293 87.625 33.407 63.61 14.212 135.621 11.77 208.739-10.96 202.34-62.9 337.821-256.02 302.73-431.529C725.77 62.802 533.44-28.416 331.099 34.484 128.758 97.385-6.464 290.63 28.589 465.947Z" />
    <path stroke="url(#j)" stroke-miterlimit="10" stroke-width=".5"
        d="M320.668 21.04c209.715-65.192 409.204 29.42 445.573 211.324 36.37 181.903-104.153 382.213-313.868 447.405C242.658 744.962 43.169 650.349 6.8 468.446-29.57 286.543 110.953 86.233 320.668 21.041Z" />
    <defs>
        <linearGradient id="a" x1="590" x2="387" y1="-64" y2="120" gradientUnits="userSpaceOnUse">
            <stop stop-color="#030712" />
            <stop offset="1" stop-color="#D1D5DB" />
        </linearGradient>
        <linearGradient id="b" x1="590" x2="387" y1="-64" y2="120" gradientUnits="userSpaceOnUse">
            <stop stop-color="#030712" />
            <stop offset="1" stop-color="#D1D5DB" />
        </linearGradient>
        <linearGradient id="c" x1="590" x2="387" y1="-64" y2="120" gradientUnits="userSpaceOnUse">
            <stop stop-color="#030712" />
            <stop offset="1" stop-color="#D1D5DB" />
        </linearGradient>
        <linearGradient id="d" x1="590" x2="387" y1="-64" y2="120" gradientUnits="userSpaceOnUse">
            <stop stop-color="#030712" />
            <stop offset="1" stop-color="#D1D5DB" />
        </linearGradient>
        <linearGradient id="e" x1="590" x2="387" y1="-64" y2="120" gradientUnits="userSpaceOnUse">
            <stop stop-color="#030712" />
            <stop offset="1" stop-color="#D1D5DB" />
        </linearGradient>
        <linearGradient id="f" x1="590" x2="387" y1="-64" y2="120" gradientUnits="userSpaceOnUse">
            <stop stop-color="#030712" />
            <stop offset="1" stop-color="#D1D5DB" />
        </linearGradient>
        <linearGradient id="g" x1="590" x2="387" y1="-64" y2="120" gradientUnits="userSpaceOnUse">
            <stop stop-color="#030712" />
            <stop offset="1" stop-color="#D1D5DB" />
        </linearGradient>
        <linearGradient id="h" x1="590" x2="387" y1="-64" y2="120" gradientUnits="userSpaceOnUse">
            <stop stop-color="#030712" />
            <stop offset="1" stop-color="#D1D5DB" />
        </linearGradient>
        <linearGradient id="i" x1="590" x2="387" y1="-64" y2="120" gradientUnits="userSpaceOnUse">
            <stop stop-color="#030712" />
            <stop offset="1" stop-color="#D1D5DB" />
        </linearGradient>
        <linearGradient id="j" x1="590" x2="387" y1="-64" y2="120" gradientUnits="userSpaceOnUse">
            <stop stop-color="#030712" />
            <stop offset="1" stop-color="#D1D5DB" />
        </linearGradient>
    </defs>
</svg>
