<svg fill="none" height="58" viewBox="0 0 109 58" width="109" xmlns="http://www.w3.org/2000/svg" xmlns:xlink="http://www.w3.org/1999/xlink"><linearGradient id="logo" gradientUnits="userSpaceOnUse" x1=".640625" x2="101.186" y1=".800003" y2="60.3593"><stop offset="0" stop-color="#0074e4"></stop><stop offset="1" stop-color="#5522fa"></stop></linearGradient><g clip-rule="evenodd" fill-rule="evenodd"><path d="m95.3046 47.87c.6567-.6564.6568-1.719 0-2.3754-.6551-.657-1.7193-.657-2.3738.0002-.6578.6562-.6581 1.7193 0 2.3754.6542.6556 1.7186.6556 2.3738-.0002zm-2.3739 6.2721c-.6359.6554-.6488 1.7221 0 2.3694.6539.6539 1.7214.6539 2.3741.0002.6569-.6539.6565-1.7157 0-2.3693-.5388-.54-.5386-1.4134 0-1.9521.6372-.6561.65-1.7282 0-2.3756-.653-.6541-1.7203-.6539-2.3741 0-.5421.5239-1.4161.5344-1.9519 0-.5388-.5396-.5389-1.4132-.0002-1.9525.6363-.6558.6493-1.7209.0003-2.3688-.6531-.6553-1.7164-.6553-2.3702-.0003-.6554.6548-.6553 1.7144 0 2.3691.5235.5407.5341 1.4184 0 1.9525-.6359.6557-.6489 1.7275 0 2.3756.6538.6531 1.717.6531 2.3699 0 .5425-.5243 1.4165-.535 1.9521 0 .5395.5388.5395 1.4121 0 1.9518zm6.6939-4.3275c.6564.6565.6564 1.7192.0001 2.3756-.6553.6559-1.7197.6556-2.3739 0-.6581-.6561-.6577-1.7192 0-2.3753.6545-.6573 1.7187-.6573 2.3738-.0003zm-41.4812-2.1162c0 .4736-.3833.8569-.8681.8569s-.8682-.3833-.8682-.8569c0-.4735.3834-.8569.8682-.8569s.8681.3834.8681.8569zm-25.2091 5.5382c0-1.1336-.6618-1.8658-1.563-1.8658-.5069 0-.8731.1901-1.1124.521v-1.8869h-.7745v4.9989h.7181v-.4928c.2394.3731.6196.5844 1.1617.5844.9013 0 1.5701-.7252 1.5701-1.8588zm-.7885 0c0 .7252-.3802 1.1899-.9364 1.1899-.5563 0-.9858-.4295-.9858-1.1899 0-.7534.4155-1.204.9858-1.204.5773 0 .9364.4788.9364 1.204zm3.5034-1.7672-.345 1.0279c-.1831.5492-.3802 1.1829-.5281 1.6687-.1478-.4788-.3591-1.1265-.5421-1.6616l-.345-1.035h-.8167l1.3307 3.7175-.0212.0634c-.1337.4013-.3238.4998-.5773.4998-.1338 0-.2746-.0211-.4013-.0422l-.1268.5844c.1549.0422.3802.0774.6196.0774.6337 0 .9294-.2746 1.1547-.9293l1.387-3.971zm20.8932-2.2264v5.7614h1.4657v-5.7614zm-12.4179-1.0034v-1.2402h-5.2991v1.2628h3.4726l-2.5819 2.2323.6652.9133c.1578-.0564.451-.1466.9471-.1466.9358 0 1.5671.4623 1.5671 1.2853 0 .8118-.5524 1.353-1.4882 1.353-.7442 0-1.3643-.248-2.2662-.8118l-.7329 1.0711c1.1162.7667 1.9844 1.0373 3.0442 1.0373 1.9618 0 2.9652-1.3642 2.9652-2.6608 0-1.4657-1.0711-2.3452-2.503-2.379zm4.9671.0226h-4.0927v-1.2628h5.8403v1.1387c-1.3755 1.6912-2.6383 4.2844-3.0103 6.8663h-1.7025c.3269-2.4015 1.6123-4.9383 2.9652-6.7422zm1.6043 2.5931c0-.9809.8568-1.8039 2.4015-1.8039.9696 0 1.6686.2255 2.4804.902l-.7892.9583c-.699-.5412-1.1388-.6765-1.725-.6765-.5863 0-.9697.2368-.9697.575 0 .3583.345.4343 1.2362.6307l.1055.0233c1.5785.3495 2.2324.7667 2.2324 1.8377 0 1.105-.902 1.8829-2.4691 1.8829-1.0599 0-1.8491-.2593-2.7849-1.0936l.8456-.9471c.8456.6878 1.2966.8569 1.9731.8569.575 0 1.0034-.2142 1.0034-.6089 0-.4379-.511-.548-1.2389-.7047l-.003-.0007-.0004-.0001c-.0581-.0125-.1176-.0253-.1783-.0386-1.6235-.3608-2.1196-.7667-2.1196-1.7927zm10.7686-1.8039c.8456 0 1.4093.3157 1.7588.8343v-.6426h1.353v5.4795c0 1.6461-1.229 2.4917-2.8187 2.4917-.9132 0-1.8039-.2368-2.7397-.8456l.7103-1.0599c.8117.4849 1.3417.6878 2.0069.6878.7892 0 1.4093-.3833 1.4093-1.3981v-.4622c-.3608.451-.902.7328-1.6799.7328-1.4545 0-2.5368-1.1725-2.5368-2.9088 0-1.7251 1.0823-2.9089 2.5368-2.9089zm-1.0599 2.9089c0 .9921.5525 1.6686 1.3868 1.6686.8118 0 1.3981-.6765 1.3981-1.6686 0-.9922-.5863-1.6574-1.3981-1.6574-.8343 0-1.3868.6652-1.3868 1.6574zm8.4736-2.9089c-.7892 0-1.3755.327-1.7363.8456v-.6539h-1.3642v5.7613h1.4657v-3.4726c0-.7216.4848-1.2176 1.1613-1.2176.699 0 1.0711.4284 1.0711 1.1838v3.5064h1.4657v-3.9461c0-1.1726-.7216-2.0069-2.0633-2.0069zm3.0956 1.2966c.7215-.8569 1.5559-1.2966 2.6946-1.2966 1.6574 0 2.503.8456 2.503 2.0633v3.8897h-1.3192v-.5975c-.3495.4848-.9696.7892-1.8603.7892-1.0936 0-2.0632-.4735-2.0632-1.6461 0-1.3304 1.1838-1.7927 2.4917-2.0295l1.3529-.248v-.1353c0-.5637-.4171-.8794-1.0823-.8794-.7893 0-1.1952.3608-1.7927.9358zm1.3867 3.1005c0 .3608.327.575.8795.575.7441 0 1.5333-.3608 1.5333-1.3642v-.3383l-.9696.203c-.8681.1804-1.4432.3833-1.4432.9245zm5.0348-6.4491v8.005h1.4658v-8.005zm4.8995 2.052c-1.5446 0-2.4015.823-2.4015 1.8039 0 1.026.4961 1.4319 2.1197 1.7927.0618.0136.1225.0266.1816.0394.7279.1567 1.239.2668 1.239.7047 0 .3947-.4285.6089-1.0035.6089-.6765 0-1.1274-.1691-1.973-.8569l-.8456.9471c.9358.8343 1.725 1.0936 2.7848 1.0936 1.5672 0 2.4692-.7779 2.4692-1.8829 0-1.071-.654-1.4882-2.2324-1.8377l-.1055-.0233c-.8912-.1964-1.2362-.2724-1.2362-.6307 0-.3382.3833-.575.9696-.575s1.026.1353 1.725.6765l.7893-.9583c-.8118-.6765-1.5108-.902-2.4805-.902z" fill="#1d2d35"></path><path d="m33.1878 17.6498c1.5426-1.5513 3.4644-2.7584 5.373-3.2029 2.1179-.488 3.9612.0218 5.2336 1.4424 3.0592 3.4252 2.3096 11.5828-2.2137 24.2463-.244.6885-1.011 1.0459-1.6995.8018-.6885-.244-1.0458-1.011-.8018-1.6995 5.6737-15.8795 3.7999-20.3766 2.7279-21.5793-.61-.6798-1.499-.889-2.6582-.6188-1.8476.427-3.8958 1.9871-5.1595 3.7476 1.8738 7.4953 3.2421 16.0799.8977 19.4877-.6275.9064-1.4991 1.438-2.51 1.5426-.8193.0784-1.5688-.244-2.1266-.9064-2.4752-2.9458-1.2376-13.9011.0959-18.7033.1743-.6275.4444-1.2637.7843-1.8825-.1307-.5055-.2701-1.0284-.4183-1.5688-2.3619-8.6718-6.2664-15.26069-7.6434-15.30426-1.0546.61007-3.8261 6.49298 2.5536 23.88026.244.6711-.0784 1.4206-.7408 1.6908-.6624.2789-1.4206-.0175-1.7169-.6711-6.5802-14.3282-9.7177-18.48542-10.8856-19.67072-.4619 2.15272-.7147 8.73282 7.1118 23.13942.3399.6275.1307 1.4119-.4794 1.778-.61.366-1.4031.1917-1.7953-.401-3.7651-5.6475-8.76774-13.1428-10.76357-15.1822-.2266 2.1178.43577 8.3668 7.25127 18.6946.3921.5926.244 1.3944-.3312 1.8128-.5752.4183-1.3858.2963-1.8216-.2615-4.85444-6.2141-7.33833-7.6783-8.20116-8.0269.10459 1.6385 1.90868 6.9985 6.03107 11.4608 2.76279 2.9894 7.32099 6.3099 13.36949 5.1334.7233-.1395 1.4206.3311 1.56 1.0545.1395.7234-.3312 1.4206-1.0546 1.5601-1.0458.2004-2.0568.2963-3.0242.2963-7.2774 0-12.29745-5.2554-14.79877-8.6718-3.03297-4.1573-5.586585-10.3017-4.392573-12.4805.357333-.6449.984843-1.0459 1.743083-1.1069 1.04585-.0784 2.27472.5055 3.60818 1.4904-2.92838-6.676-3.05911-11.1906-2.10041-12.9424.52292-.95 1.28116-1.1243 1.68207-1.1417 1.11557-.0436 2.08299.5055 5.23792 4.8196-2.571-7.9921-1.54258-11.70482-1.0022-12.89883.3399-.76696 1.011-1.22016 1.7779-1.22016l.0096.0001c.806.00862 2.5376.02713 7.477 9.05519-1.2812-7.98329.183-12.21898 2.4316-13.50015.5142-.287608 1.3508-.549071 2.4141-.10458 3.5908 1.48162 7.2687 10.58923 8.9682 16.61153zm-.9238 21.501c.1307-.0436.2788-.1308.4532-.3835v.0087c.488-.7147 1.6733-3.582-.3574-13.3346-1.072 5.6476-1.072 12.5502-.0958 13.7094zm68.442-30.14664h5.735c.854 0 1.264.63622.906 1.41194l-8.3489 18.1542c-.3486.7669-.645 2.1004-.645 2.9545v7.9223c0 .8541-.6972 1.5513-1.5513 1.5513h-5.3687c-.8541 0-1.5513-.6972-1.5513-1.5513v-7.9223c0-.8454-.2877-2.1789-.645-2.9545l-5.0898-11.0686c-.3573-.7757-1.3422-1.4119-2.1963-1.4119h-7.8787c-.8541 0-1.5514.6972-1.5514 1.5513v1.9174c0 .8541.6973 1.5514 1.5514 1.5514h5.787c.8541 0 1.5514.6972 1.5514 1.5513v3.9917c0 .8541-.6973 1.5513-1.5514 1.5513h-5.787c-.8541 0-1.5514.6973-1.5514 1.5514v2.6059c0 .8541.6973 1.5513 1.5514 1.5513h9.5957c.8541 0 1.5513.6972 1.5513 1.5514v3.9916c0 .8541-.6972 1.5514-1.5513 1.5514h-18.0932c-.8541 0-1.5514-.6973-1.5514-1.5514v-9.5957c0-.8541-.6972-1.5513-1.5513-1.5513h-6.4494c-.8541 0-1.5514.6972-1.5514 1.5513v9.5957c0 .8541-.6972 1.5514-1.5513 1.5514h-5.3687c-.8541 0-1.5514-.6973-1.5514-1.5514v-4.6976c2.8587-9.8658 2.85-16.4896 0-20.1326v-4.0614c0-.85409.6973-1.55133 1.5514-1.55133h5.3687c.8541 0 1.5513.69724 1.5513 1.55133v8.8113c0 .8541.6973 1.5513 1.5514 1.5513h6.4494c.8541 0 1.5513-.6972 1.5513-1.5513v-8.8113c0-.85409.6973-1.55133 1.5514-1.55133h22.172c.8541 0 1.7779.66238 2.0655 1.46423l1.3335 3.7737c.2876.8019.7408 2.1179 1.0197 2.9284l1.4119 4.2008c.2789.8019.5403 1.4642.6014 1.4642.061 0 .3311-.6623.6187-1.4642l1.4642-4.2182c.1989-.538.4722-1.3074.7175-1.9978.1202-.3385.2337-.658.3284-.9219l1.3334-3.7738c.2789-.81049 1.2115-1.46414 2.0653-1.46414z" fill="url(#logo)"></path></g></svg>
