<svg xmlns="http://www.w3.org/2000/svg" xmlns:xlink="http://www.w3.org/1999/xlink" xml:space="preserve" width="624.068" height="591.317" viewBox="0 0 165.118 156.453"><defs><linearGradient id="a"><stop offset="0" style="stop-color:#006bc2;stop-opacity:1"/><stop offset="1" style="stop-color:#0077c9;stop-opacity:1"/></linearGradient><linearGradient xlink:href="#a" id="b" x1="110.829" x2="110.829" y1="729.648" y2="596.074" gradientTransform="rotate(-90 -168.587 306.532)scale(.70582)" gradientUnits="userSpaceOnUse"/></defs><g style="stroke:none;fill:#fff;fill-opacity:1" transform="translate(64.574 -394.536)scale(.70582)"><title>Rectangle.308</title><path d="M0 612.646h138.075v117H0z" class="st1" style="fill:#fff;stroke:none;stroke-width:.25;fill-opacity:1"/></g><g style="stroke:none" transform="translate(56.217 -390.654)scale(.70582)"><title>rect307</title><path d="M9.48 602.25c-5.25 0-9.48 4.21-9.48 9.45l.04 108.5c-.26 5.11 2.62 9.45 8.4 9.45h136.41c5.11 0 9.44-2.89 9.37-7.54l.07-110.41c0-5.24-4.23-9.45-9.48-9.45zm-1.9 7.83h139.05l.04 111.65H7.62Z" class="st8" style="fill:#0071c5;stroke:none;stroke-width:.683161;stroke-linecap:round;stroke-linejoin:round;fill-opacity:1"/></g><g style="stroke:none;fill:#0071c5;fill-opacity:1" transform="translate(66.583 -428.774)scale(.70582)"><title>Sheet.88</title><g style="stroke:none;fill:#0071c5;fill-opacity:1" transform="translate(65.72)"><title>Sheet.86</title><path d="M66.66 668.92 0 722.35v7.22a3.34 3.328-180 0 0 2.9-.73l63.76-51.08z" class="st9" style="fill:#0071c5;stroke:none;stroke-width:.75;fill-opacity:1"/></g><g style="stroke:none;fill:#0071c5;fill-opacity:1" transform="matrix(-1 0 0 1 66.663 0)"><title>Sheet.87</title><path d="M66.66 668.92 0 722.35v7.22a3.34 3.328-180 0 0 2.9-.73l63.76-51.08z" class="st9" style="fill:#0071c5;stroke:none;stroke-width:.75;fill-opacity:1"/></g></g><path d="M39.885 137.945V-18.508L-54.4-2.867v125.163Z" class="st25" style="fill:url(#b);fill-opacity:1;stroke:none;stroke-width:.176456" transform="translate(54.399 18.508)"/><g style="fill:#fff;fill-opacity:1;stroke:none" transform="translate(23.021 -407.699)scale(.70582)"><title>path356</title><path d="M30.76 648.93C19.046 648.93 0 658.75 0 689.65c0 30.246 18.83 39.896 30.455 39.652 21.533-.452 29.877-22.251 29.877-40.569 0-19.83-8.21-39.803-29.572-39.803m-1.217 15.455c9.377 0 15.08 9.521 15.08 24.06 0 12.86-4.78 25.076-14.937 25.076-12.783 0-15.844-15.49-15.691-24.846 0-9.508 4.16-24.29 15.548-24.29" class="st15" style="fill:#fff;fill-opacity:1;stroke:none;stroke-width:.566929;stroke-linecap:round;stroke-linejoin:round"/></g></svg>