<svg xmlns="http://www.w3.org/2000/svg" shape-rendering="geometricPrecision" text-rendering="geometricPrecision" image-rendering="optimizeQuality" fill-rule="evenodd" clip-rule="evenodd" viewBox="0 0 512 512"><path fill="#5F01D1" d="M105 0h302c57.927.154 104.846 47.073 105 104.995V407c-.154 57.926-47.073 104.844-104.995 104.998L105 512C47.074 511.844.156 464.926.002 407.003L0 105C.156 47.073 47.074.154 104.997 0H105z"/><path fill="#fff" fill-rule="nonzero" d="M106.598 187.846h56.988l33.184 84.895 33.616-84.895h55.481l-83.545 200.975H146.48l22.871-53.255-62.751-147.72h-.002zm243.879 67.833h-62.144l55.156-132.502 61.917.003-54.929 132.499zm-45.865 12.682c19.067 0 34.523 15.457 34.523 34.521 0 19.065-15.456 34.522-34.523 34.522-19.065 0-34.519-15.457-34.519-34.522 0-19.064 15.456-34.521 34.519-34.521z"/></svg>