<svg id="Layer_1" data-name="Layer 1" xmlns="http://www.w3.org/2000/svg" viewBox="0 0 320 91"><defs><style>.cls-1{fill:#636363;}</style></defs><path class="cls-1" d="M117.71,49.81a.93.93,0,0,0-1.28,0,6.06,6.06,0,0,1-4.07,1.57c-2.69,0-5.1-1.76-5.1-5.73s2.26-5.74,4.71-5.74a4.61,4.61,0,0,1,4.61,4.81H110.3a1,1,0,0,0-1,1v.93h8.43A1.26,1.26,0,0,0,119,45.35c-.15-4.65-3.09-7.6-7-7.6-4.17,0-7.26,3.39-7.26,7.9a7.55,7.55,0,0,0,7.55,7.89,8.1,8.1,0,0,0,6.33-2.94Z"/><path class="cls-1" d="M143.84,39.18a12.75,12.75,0,0,1,5.59-1.33c4.17,0,6.47,2.16,6.47,6.13v9.27h-1.42a1,1,0,0,1-1-1v-1a6.66,6.66,0,0,1-5.25,2.3c-2.74,0-5.69-1.52-5.69-4.8s2.45-5,6.52-5h2.55v.94a1,1,0,0,1-1,1h-1.32c-2.65,0-4.22,1.12-4.22,3s1.87,2.84,3.63,2.84c2.75,0,4.86-1.67,4.86-3.87V44.08c0-2.55-1.52-3.92-4.32-3.92a10.28,10.28,0,0,0-3.68.73.9.9,0,0,1-1.22-.59Z"/><path class="cls-1" d="M85.64,35.21H84.17a1,1,0,0,1-1-1V32.75h1.47a1,1,0,0,1,1,1Z"/><path class="cls-1" d="M223.9,35.21h-1.47a1,1,0,0,1-1-1V32.75h1.47a1,1,0,0,1,1,1Z"/><path class="cls-1" d="M69.17,40.5A8,8,0,0,0,63,37.7a7.92,7.92,0,0,0,0,15.84,8.1,8.1,0,0,0,6.27-3l-.93-.88a1,1,0,0,0-1.32,0,5.76,5.76,0,0,1-3.92,1.67,5.48,5.48,0,0,1-5.35-5.69A5.37,5.37,0,0,1,63,40a5.55,5.55,0,0,1,3.87,1.67.94.94,0,0,0,1.33-.05Z"/><path class="cls-1" d="M96,53.25a1.63,1.63,0,0,0,1.47-1l6.17-14.17h-1.32a2,2,0,0,0-1.86,1.22L96.08,49.86,91.67,39.32a2,2,0,0,0-1.86-1.22H88.44l6.12,14.17A1.63,1.63,0,0,0,96,53.25Z"/><path class="cls-1" d="M79.56,50.6a5.76,5.76,0,0,1-2.3.59,2.07,2.07,0,0,1-2.36-2.36V40.3h4.71V39.08a1,1,0,0,0-1-1H74.9V33.73a1,1,0,0,0-1-1H72.45V49.23a4.23,4.23,0,0,0,4.17,4.31,6,6,0,0,0,3-.69Z"/><path class="cls-1" d="M84.17,53.25h1.47V39.08a1,1,0,0,0-1-1H83.19V52.27A.92.92,0,0,0,84.17,53.25Z"/><path class="cls-1" d="M140.5,35.84a10.87,10.87,0,0,0-8-3.33A10.25,10.25,0,0,0,122.12,43.1a10.19,10.19,0,0,0,10.25,10.54A10.87,10.87,0,0,0,140.6,50l-1-1a1,1,0,0,0-1.32,0,8.36,8.36,0,0,1-5.84,2.36c-4.31,0-7.64-3.63-7.64-8.24s3.28-8.14,7.64-8.14a8.87,8.87,0,0,1,5.69,2.21,1,1,0,0,0,1.33-.1Z"/><path class="cls-1" d="M177,37.75a6,6,0,0,0-5.24,2.85,5.21,5.21,0,0,0-4.81-2.85,5.45,5.45,0,0,0-4.66,2.5V39.08a1,1,0,0,0-1-1h-1.47V53.25h1.47a1,1,0,0,0,1-1V44.62c0-2.65,1.67-4.56,4-4.56S170,41.68,170,44.37v7.9a1,1,0,0,0,1,1h1.47V44.52c0-3.09,2-4.46,4-4.46,2.36,0,3.73,1.57,3.73,4.36v7.85a1,1,0,0,0,1,1h1.47V43.88C182.62,40.11,180.46,37.75,177,37.75Z"/><path class="cls-1" d="M194.73,37.75a6.65,6.65,0,0,0-5.59,3V39.08a1,1,0,0,0-1-1h-1.47V56.92a1,1,0,0,0,1,1h1.47V50.65a6.74,6.74,0,0,0,5.59,2.89c3.53,0,7.26-2.79,7.26-7.89S198.21,37.75,194.73,37.75Zm4.71,7.9c0,3.33-2.11,5.64-5.1,5.64a5.38,5.38,0,0,1-5.25-5.64A5.38,5.38,0,0,1,194.34,40C197.28,40,199.44,42.41,199.44,45.65Z"/><path class="cls-1" d="M222.38,53.25h1.47V39.08a1,1,0,0,0-1-1H221.4V52.27A1,1,0,0,0,222.38,53.25Z"/><path class="cls-1" d="M227.92,55.75a12.34,12.34,0,0,0,7,2.15c4.91,0,7.7-2.69,7.7-7.4V38.1h-1.47a1,1,0,0,0-1,1V40.5a7.16,7.16,0,1,0-5.69,11.57,6.91,6.91,0,0,0,5.69-2.89v1.37c0,3.29-1.91,5.15-5.29,5.15a9.53,9.53,0,0,1-5-1.42.9.9,0,0,0-1.32.34Zm12.21-10.84a5.11,5.11,0,0,1-5.34,5,4.85,4.85,0,0,1-5-5,4.79,4.79,0,0,1,5-4.9A5.07,5.07,0,0,1,240.13,44.91Z"/><path class="cls-1" d="M254.05,37.75a5.73,5.73,0,0,0-5,2.6V39.08a1,1,0,0,0-1-1h-1.47V53.25h1.47a1,1,0,0,0,1-1v-7.7a4.23,4.23,0,0,1,4.32-4.51c2.5,0,4,1.62,4,4.36v7.85a1,1,0,0,0,1,1h1.47V43.83C259.89,40.16,257.63,37.75,254.05,37.75Z"/><path class="cls-1" d="M283.57,45.3l-12.7,8.44A2,2,0,0,0,270,55.4v2.11l15.39-10.1a2.61,2.61,0,0,0,1.13-2.11,2.48,2.48,0,0,0-1.13-2.1L270,33.19v2a2,2,0,0,0,.88,1.66Z"/><path class="cls-1" d="M275.92,46a2.1,2.1,0,0,0,2.26,0l1.08-.73-8.05-5.45a.78.78,0,0,0-1.22.64v1.62l4.17,2.79Z"/><path class="cls-1" d="M205.52,39.18a12.75,12.75,0,0,1,5.59-1.33c4.16,0,6.47,2.16,6.47,6.13v9.27h-1.42a1,1,0,0,1-1-1v-1a6.67,6.67,0,0,1-5.25,2.3c-2.75,0-5.69-1.52-5.69-4.8s2.45-5,6.52-5h2.55v.94a1,1,0,0,1-1,1H211c-2.65,0-4.22,1.12-4.22,3s1.86,2.84,3.63,2.84c2.75,0,4.85-1.67,4.85-3.87V44.08c0-2.55-1.52-3.92-4.31-3.92a10.28,10.28,0,0,0-3.68.73A.9.9,0,0,1,206,40.3Z"/><path class="cls-1" d="M53,53.25h1.42L45.63,33.78a1.57,1.57,0,0,0-1.66-1,1.47,1.47,0,0,0-1.62,1L33.52,53.25h1.33a2.13,2.13,0,0,0,1.86-1.18L38.57,48h7a1,1,0,0,0,1-1V45.65h-7L44,35.84,51.17,52A2,2,0,0,0,53,53.25Z"/></svg>