<svg xmlns="http://www.w3.org/2000/svg" id="Layer_1" data-name="Layer 1" viewBox="0 0 59 36"><defs><style>.cls-2{fill:#000;fill-rule:evenodd}</style></defs><path d="M16.73 13.21a5.4 5.4 0 0 0 .27 1.73 7.62 7.62 0 0 0 .63 1.4.91.91 0 0 1 .13.44.73.73 0 0 1-.37.58l-1.23.82a1 1 0 0 1-.51.17.82.82 0 0 1-.58-.27 5.13 5.13 0 0 1-.7-.91c-.19-.33-.39-.71-.59-1.14A7.17 7.17 0 0 1 8 18.72a5.32 5.32 0 0 1-3.88-1.39 5 5 0 0 1-1.43-3.75 5 5 0 0 1 1.77-4 7.09 7.09 0 0 1 4.79-1.51 14.78 14.78 0 0 1 2.05.15 21.79 21.79 0 0 1 2.23.43V7.22a4.29 4.29 0 0 0-.91-3.12 4.48 4.48 0 0 0-3.17-.9 9 9 0 0 0-2.09.25 15.1 15.1 0 0 0-2.1.67 5.27 5.27 0 0 1-.68.25 1.07 1.07 0 0 1-.3 0c-.28 0-.41-.2-.41-.61v-1A1.27 1.27 0 0 1 4 2.18a1.44 1.44 0 0 1 .55-.41A12.79 12.79 0 0 1 7 .88a11.87 11.87 0 0 1 3-.37q3.47 0 5.09 1.58a6.42 6.42 0 0 1 1.61 4.79Zm-7.89 3a6.29 6.29 0 0 0 2-.36 4.24 4.24 0 0 0 1.83-1.24 3.12 3.12 0 0 0 .67-1.24 6.89 6.89 0 0 0 .18-1.69v-.82c-.56-.13-1.16-.24-1.78-.32a14.37 14.37 0 0 0-1.82-.12 4.46 4.46 0 0 0-2.9.79 2.75 2.75 0 0 0-1 2.24 2.77 2.77 0 0 0 .71 2.06 2.8 2.8 0 0 0 2.11.66Zm15.62 2.11a1.18 1.18 0 0 1-.75-.19 1.55 1.55 0 0 1-.41-.76l-4.56-15a3.81 3.81 0 0 1-.17-.78.42.42 0 0 1 .48-.59H21a1.16 1.16 0 0 1 .76.19 1.55 1.55 0 0 1 .39.76l3.27 12.87L28.41 2a1.34 1.34 0 0 1 .38-.76 1.2 1.2 0 0 1 .78-.24h1.56a1.26 1.26 0 0 1 .79.19 1.34 1.34 0 0 1 .37.76l3.07 13L38.73 2a1.55 1.55 0 0 1 .39-.76 1.14 1.14 0 0 1 .76-.24h1.81a.42.42 0 0 1 .47.48 1.69 1.69 0 0 1 0 .3 3.2 3.2 0 0 1-.14.48L37.3 17.33a1.55 1.55 0 0 1-.41.76 1.18 1.18 0 0 1-.75.19h-1.67a1.24 1.24 0 0 1-.78-.2 1.49 1.49 0 0 1-.38-.79l-3-12.52-3 12.52a1.49 1.49 0 0 1-.38.79 1.24 1.24 0 0 1-.78.2Zm25 .51a13.08 13.08 0 0 1-3-.34 9.05 9.05 0 0 1-2.24-.78 1.36 1.36 0 0 1-.6-.55 1.32 1.32 0 0 1-.12-.54v-1c0-.41.15-.61.44-.61a.92.92 0 0 1 .36.07 4.64 4.64 0 0 1 .49.2 10.2 10.2 0 0 0 2.15.68 11.33 11.33 0 0 0 2.31.24 5.27 5.27 0 0 0 2.85-.65 2.05 2.05 0 0 0 1-1.84 1.86 1.86 0 0 0-.53-1.36 5.05 5.05 0 0 0-2-1l-2.83-.88a6 6 0 0 1-3.11-2 4.57 4.57 0 0 1-1-2.82 4.38 4.38 0 0 1 .52-2.17 5.34 5.34 0 0 1 1.4-1.6 6.26 6.26 0 0 1 2-1A8.6 8.6 0 0 1 50.1.51a9.84 9.84 0 0 1 1.31.09 11.79 11.79 0 0 1 1.26.22c.39.09.76.19 1.1.3a6.41 6.41 0 0 1 .82.34 2 2 0 0 1 .58.48 1.12 1.12 0 0 1 .17.65v.92c0 .4-.15.61-.44.61a2 2 0 0 1-.75-.24 9.07 9.07 0 0 0-3.75-.75 5.06 5.06 0 0 0-2.59.55 1.86 1.86 0 0 0-.91 1.73 1.85 1.85 0 0 0 .57 1.38 5.71 5.71 0 0 0 2.15 1.07l2.76.89a6 6 0 0 1 3 1.87 4.4 4.4 0 0 1 .9 2.72 5 5 0 0 1-.51 2.27 5.19 5.19 0 0 1-1.41 1.72 6.46 6.46 0 0 1-2.16 1.09 9.65 9.65 0 0 1-2.75.37Z" style="fill:#000"/><path class="cls-2" d="M53.13 28.25c-6.41 4.75-15.69 7.24-23.69 7.24a42.85 42.85 0 0 1-28.93-11c-.6-.54-.07-1.28.65-.86a58.2 58.2 0 0 0 29 7.68 57.54 57.54 0 0 0 22.04-4.56c1.08-.46 1.99.72.93 1.5Z"/><path class="cls-2" d="M55.79 25.21c-.82-1.05-5.41-.5-7.48-.25-.62.07-.72-.47-.16-.87 3.67-2.57 9.68-1.83 10.38-1s-.19 6.89-3.62 9.77c-.53.44-1 .2-.8-.38.77-1.9 2.5-6.22 1.68-7.27Z"/></svg>