<svg version="1.1" id="Layer_1" xmlns:x="ns_extend;" xmlns:i="ns_ai;" xmlns:graph="ns_graphs;" xmlns="http://www.w3.org/2000/svg" xmlns:xlink="http://www.w3.org/1999/xlink" x="0px" y="0px" viewBox="0 0 225.6 95" style="enable-background:new 0 0 225.6 95;" xml:space="preserve">
 <style type="text/css">
  .st0{fill:#838383;}
	.st1{fill-rule:evenodd;clip-rule:evenodd;}
 </style>
 <metadata>
  <sfw xmlns="ns_sfw;">
   <slices>
   </slices>
   <sliceSourceBounds bottomLeftOrigin="true" height="95" width="225.6" x="19.5" y="-219">
   </sliceSourceBounds>
  </sfw>
 </metadata>
 <g>
  <path class="st0" d="M185,41.3c0-10.1,6.4-17.2,15.5-17.2c9.1,0,15.6,7.1,15.6,17.2s-6.5,16.8-15.6,16.8
		C191.4,58.1,185,51.1,185,41.3z M175.6,41.3c0,14.9,10.4,25.4,25,25.4s25.1-10.5,25.1-25.4s-10.4-25.8-25.1-25.8
		C185.8,15.5,175.6,26.2,175.6,41.3z M127.1,16.1l19.6,50h9.2l19.6-50h-9.9l-14.2,38.6h-0.2L137,16.1H127.1z M89.1,39.5
		c0.6-9.2,6.7-15.4,15-15.4c7.2,0,12.6,4.6,13.4,11.5h-16.6c-5.9,0-9.1,0.7-11.5,3.9L89.1,39.5L89.1,39.5z M79.6,41
		c0,14.9,10.5,25.7,25,25.7c9.8,0,18.4-5,22.1-12.9l-8-4c-2.8,5.2-8.2,8.3-14.1,8.3c-7.1,0-13.5-5.4-13.5-10.6
		c0-2.7,1.8-3.9,4.4-3.9h31.7v-2.7c0-15-9.6-25.4-23.4-25.4S79.6,26.2,79.6,41 M52.4,66.1h9V35.4c0-6.6,4.1-11.3,9.8-11.3
		c2.4,0,4.9,0.8,6.1,1.9c0.9-2.4,2.3-4.8,4.4-7.2c-2.4-2-6.5-3.3-10.5-3.3c-11,0-18.8,8.2-18.8,19.9V66.1L52.4,66.1z M9,33V8.6h14.8
		c5,0,8.3,2.9,8.3,7.3c0,5-4.3,8.8-13.1,11.7c-6,1.9-8.7,3.5-9.7,5.4L9,33z M9,57.5V47.3c0-4.5,3.8-8.9,9.1-10.6
		c4.7-1.6,8.6-3.2,11.9-4.9c4.4,2.6,7.1,7.1,7.1,11.8c0,8-7.6,13.9-17.9,13.9H9z M0,66.1h20c15.2,0,26.6-9.5,26.6-22.1
		c0-6.9-3.5-13.1-9.7-17.1c3.2-3.2,4.7-6.9,4.7-11.4C41.5,6.2,34.9,0,24.8,0H0V66.1z">
  </path>
  <path d="M0,91.2h1.6v-6h6.8v-1.5H1.6V79h7.6v-1.5H0V91.2z">
  </path>
  <path d="M15.6,91.5c2.8,0,5.3-2.1,5.3-5.4c0-3.3-2.5-5.3-5.3-5.3c-2.8,0-5.3,2.1-5.3,5.3C10.3,89.4,12.9,91.5,15.6,91.5z M12,86.1
		c0-2.4,1.5-3.9,3.7-3.9c2.2,0,3.7,1.5,3.7,3.9c0,2.5-1.5,4-3.7,4C13.5,90.1,12,88.6,12,86.1z">
  </path>
  <path d="M23.3,91.2h1.6v-3.6c0-1.9,0.3-3.3,1.2-4.2c0.7-0.7,1.7-1,3.1-1.1v-1.4c-2.5,0-3.8,1.1-4.2,3.3h-0.1l-0.1-3.1h-1.5V91.2z">
  </path>
  <path d="M31,91.2h1.6v-5.3c0-2.4,1.3-3.7,2.9-3.7c1.5,0,2.5,1.1,2.5,2.8v6.2h1.6V86c0-2.3,1.2-3.8,2.9-3.8c1.5,0,2.5,1.1,2.5,2.8
		v6.2h1.6v-6.7c0-2.2-1.4-3.7-3.5-3.7c-1.7,0-3,1-3.5,2.8h-0.1c-0.3-1.7-1.6-2.8-3.4-2.8c-1.7,0-2.9,1-3.4,2.8h-0.1l-0.1-2.5H31
		L31,91.2z">
  </path>
  <path d="M54,91.5c2.5,0,4.4-1.5,4.7-3.9h-1.6c-0.3,1.4-1.4,2.5-3.1,2.5c-2,0-3.4-1.3-3.5-3.7h8.2c0-0.3,0-0.5,0-0.7
		c0-2.9-2-4.9-4.8-4.9c-2.9,0-5,1.9-5,5.3C49,89.8,51.1,91.5,54,91.5z M50.6,85.3c0.1-2.1,1.5-3.2,3.4-3.2c1.9,0,3.1,1.3,3.2,3.2
		H50.6z">
  </path>
  <path d="M61.2,91.2h1.6v-3.6c0-1.9,0.3-3.3,1.2-4.2c0.7-0.7,1.7-1,3.1-1.1v-1.4c-2.5,0-3.8,1.1-4.2,3.3h-0.1l-0.1-3.1h-1.5V91.2z">
  </path>
  <path d="M68.8,77.5v13.7h1.6V77.5H68.8z">
  </path>
  <path d="M73.8,95c1.7,0,2.7-1.2,3.6-3.4l4.3-10.5H80l-1.7,4.5c-0.5,1.2-1,2.5-1.5,3.8h-0.1c-0.4-1.3-0.9-2.6-1.4-3.8l-1.6-4.5H72
		l3.9,10.1l-0.4,0.9c-0.5,1.2-1,1.5-2,1.5c-0.3,0-0.7-0.1-1.2-0.2v1.3C72.9,94.9,73.4,95,73.8,95z">
  </path>
  <path class="st1" d="M157.5,75c-0.3-0.3-0.7-0.4-1.1-0.4c-0.4,0-0.8,0.1-1.1,0.4c-0.3,0.3-0.5,0.7-0.5,1.1c0.1,0.9,0.8,1.5,1.6,1.5
		c0.8,0,1.5-0.7,1.6-1.5C158,75.7,157.8,75.2,157.5,75z M149.2,91.9h2.4l0-17H149v6.8c-0.8-1.4-2.8-2.1-4.3-2.1
		c-3.6,0-6.2,2.2-6.2,6.3c0,4,2.7,6.3,6.3,6.3c1.7,0.1,3.3-0.8,4.3-2.2L149.2,91.9z M101.7,81.7c-1.6,0-2.6,0.5-2.6,1.5
		c0,1,1.1,1.4,2.7,1.5c2.3,0.2,5.2,0.6,5.2,3.7c0,2.2-2.1,3.8-5.2,3.8c-2,0-3.9-0.4-5.6-2.2l1.3-1.8c1.1,1.1,2.7,1.8,4.2,1.8
		c1.4,0,2.7-0.4,2.7-1.5c0-1.1-1-1.5-2.9-1.7c-2.3-0.2-5-0.9-5-3.6c0-2.7,2.8-3.7,5.1-3.7c1.7,0,3.4,0.5,4.7,1.6l-1.3,1.6
		C104.1,82,102.9,81.6,101.7,81.7z M115.5,89.9c1.3,0,2.8-0.4,3.6-1.3l1.7,1.6c-1.3,1.4-3.4,2-5.3,2c-4,0-6.6-2.5-6.6-6.3
		c0-3.7,2.7-6.3,6.6-6.3c3.6,0,6.1,2.1,6.1,6.2c0,0.3,0,0.7-0.1,1.1h-10C111.7,88.7,113.2,89.9,115.5,89.9z M111.5,84.8
		c0.4-1.9,2-2.9,3.9-2.9c2.1,0,3.4,1,3.6,2.9H111.5z M133.4,85.1c0-2.1-1.2-3.3-3.3-3.3c-0.9,0-1.8,0.4-2.5,1.1
		c-0.7,0.7-1,1.6-1,2.6v6.4H124v-12h2.3l0.2,1.7c1-1.3,2.5-2,4.1-2c3,0,5.3,1.8,5.3,5.6v6.8h-2.6L133.4,85.1z M141.1,85.9
		c0,2.4,1.7,4,3.9,4c2.1,0,3.8-1.8,3.8-4s-1.7-4-3.8-4C142.8,81.9,141.1,83.4,141.1,85.9z M157.7,91.9h-2.6v-12h2.6V91.9z
		 M167.2,81.9c2.1,0,3.3,1.2,3.3,3.3l0,6.8h2.6v-6.8c0-3.8-2.3-5.6-5.3-5.6c-1.6,0-3.1,0.7-4.1,2l-0.2-1.7h-2.3v12h2.6v-6.4
		c0-1,0.3-1.9,1-2.6C165.3,82.3,166.2,81.9,167.2,81.9z M178.9,81.8c0.8-1.4,2.8-2.3,4.3-2.3c3.5,0,6.2,2.2,6.2,6.3
		c0,4-2.9,6.3-6.3,6.3c-1.5,0-3.3-0.7-4.3-2.2l-0.1,1.9h-2.4v-17h2.6L178.9,81.8z M180.2,88.7c-0.7-0.8-1.2-1.8-1.1-2.9
		c0-1.1,0.4-2.1,1.2-2.8c0.7-0.7,1.7-1.1,2.8-1.1c2.2,0,3.9,1.5,3.9,3.9c0,2.4-1.6,4-3.9,4C182,89.9,181,89.5,180.2,88.7z
		 M194.9,91.9h-2.6v-17h2.6V91.9z M204.2,89.9c-2.2,0-3.3-1.4-3.3-3.5l0-6.6h-2.6v6.6c0,3.6,2.2,5.8,5.2,5.8
		c1.6,0.1,3.2-0.7,4.2-1.9l0.2,1.7h2.3v-12h-2.6v6.4c0,1-0.3,1.9-0.9,2.6C206,89.5,205.1,89.9,204.2,89.9z M219.6,89.9
		c1.3,0,2.8-0.4,3.6-1.3l1.7,1.6c-1.3,1.4-3.4,2-5.3,2c-4,0-6.6-2.5-6.6-6.3c0-3.7,2.7-6.3,6.6-6.3c3.6,0,6.1,2.1,6.1,6.2
		c0,0.3,0,0.6,0,0.9c0,0.1,0,0.1,0,0.2h-10C215.8,88.7,217.3,89.9,219.6,89.9z M215.6,84.8c0.4-1.9,2-2.9,3.9-2.9
		c2.1,0,3.4,1,3.6,2.9H215.6z">
  </path>
 </g>
</svg>