<svg xmlns="http://www.w3.org/2000/svg" fill="none" viewBox="0 0 300 72" height="72" width="300">
<path fill="#313131" d="M61.2985 16.8771L32.7538 0.396994C31.8372 -0.132331 30.7062 -0.132331 29.7896 0.396994L1.24626 16.8771C0.475722 17.322 0 18.1448 0 19.0359V52.2682C0 53.158 0.475722 53.9821 1.24626 54.427L29.7909 70.9071C30.7075 71.4364 31.8386 71.4364 32.7552 70.9071L61.2998 54.427C62.0704 53.9821 62.5461 53.1593 62.5461 52.2682V19.0359C62.5461 18.1461 62.0704 17.322 61.2998 16.8771H61.2985ZM59.5055 20.368L31.9498 68.0956C31.7635 68.4173 31.2717 68.2859 31.2717 67.9134V36.6618C31.2717 36.0373 30.938 35.4597 30.3967 35.1462L3.33274 19.521C3.01112 19.3348 3.14245 18.843 3.51499 18.843H58.6264C59.409 18.843 59.8981 19.6912 59.5068 20.3693H59.5055V20.368Z"></path>
<path fill="#313131" d="M96.8116 18.5039H108.958V25.1948H97.223C90.8925 25.1948 85.9517 28.8492 85.9517 36.5693C85.9517 44.2894 90.8925 47.9438 97.223 47.9438H108.958V54.6347H96.297C85.6944 54.6347 78.1807 48.4074 78.1807 36.5706C78.1807 24.7339 86.209 18.5066 96.8116 18.5066V18.5039Z"></path>
<path fill="#313131" d="M115.135 18.5039H122.649V40.5828C122.649 46.0891 125.17 48.6634 131.09 48.6634C137.009 48.6634 139.531 46.0904 139.531 40.5828V18.5039H147.044V42.1265C147.044 50.1549 141.949 55.2511 131.09 55.2511C120.23 55.2511 115.135 50.1039 115.135 42.0756V18.5039Z"></path>
<path fill="#313131" d="M186.312 28.7447C186.312 32.7595 183.996 35.847 180.907 37.1857V37.2889C184.15 37.7526 185.797 40.0682 185.848 43.208L186.002 54.6333H178.488L178.334 44.4435C178.283 42.1788 176.945 40.7892 174.269 40.7892H161.762V54.6333H154.248V18.5039H174.99C181.784 18.5039 186.312 21.9519 186.312 28.746V28.7447ZM178.746 29.7752C178.746 26.6877 177.099 24.9885 174.011 24.9885H161.762V34.5605H174.113C176.943 34.5605 178.746 32.8627 178.746 29.7738V29.7752Z"></path>
<path fill="#313131" d="M214.72 44.0816C214.72 41.5086 213.073 40.4272 210.604 40.2222L202.266 39.4503C195.06 38.7816 191.303 35.9501 191.303 29.105C191.303 22.26 195.935 18.5024 202.574 18.5024H220.999V24.987H203.089C200.516 24.987 198.869 26.3257 198.869 28.8987C198.869 31.4716 200.567 32.7071 203.141 32.9135L211.633 33.6344C218.066 34.1999 222.286 37.1347 222.286 44.0306C222.286 50.9266 217.809 54.6332 211.479 54.6332H192.23V48.1487H210.758C213.177 48.1487 214.72 46.5017 214.72 44.0829V44.0816Z"></path>
<path fill="#313131" d="M244.263 17.886C255.585 17.886 262.739 25.1424 262.739 36.5169C262.739 47.8913 255.277 55.251 243.954 55.251C232.632 55.251 225.478 47.8913 225.478 36.5169C225.478 25.1424 232.94 17.886 244.263 17.886ZM254.967 36.5678C254.967 28.9509 250.541 24.4737 244.107 24.4737C237.673 24.4737 233.247 28.9509 233.247 36.5678C233.247 44.1847 237.673 48.6619 244.107 48.6619C250.541 48.6619 254.967 44.1847 254.967 36.5678Z"></path>
<path fill="#313131" d="M300 28.7447C300 32.7595 297.685 35.847 294.596 37.1857V37.2889C297.839 37.7526 299.486 40.0682 299.537 43.208L299.691 54.6333H292.177L292.023 44.4435C291.972 42.1788 290.633 40.7892 287.957 40.7892H275.45V54.6333H267.937V18.5039H288.678C295.472 18.5039 300 21.9519 300 28.746V28.7447ZM292.434 29.7752C292.434 26.6877 290.787 24.9885 287.7 24.9885H275.45V34.5605H287.802C290.632 34.5605 292.434 32.8627 292.434 29.7738V29.7752Z"></path>
</svg>
