<svg xmlns="http://www.w3.org/2000/svg" viewBox="0 0 585.44 165.95"><symbol xmlns="http://www.w3.org/2000/svg" viewBox="0 0 585.44 165.95" id="59f986be-b590-4fed-b422-7910fb8885eb"><defs><style>.cls-1{fill:none}.cls-2{fill:#8f8f8f;clip-path:url(#clip-path)}.cls-3{fill:#8f8f8f;clip-path:url(#clip-path-2)}</style><clipPath transform="translate(0 0)"><rect class="cls-1" width="585.44" height="165.96"></rect></clipPath><clipPath transform="translate(0 0)"><rect class="cls-1" x="376.04" width="156.14" height="163.62"></rect></clipPath></defs><title>Logo - Full (Color)</title><g id="Layer_2"><g class="cls-2"><polygon points="63.4 27.47 63.4 74.28 20.41 74.28 20.41 27.47 0 27.47 0 139.21 20.41 139.21 20.41 93.92 63.4 93.92 63.4 139.21 83.81 139.21 83.81 27.47 63.4 27.47"></polygon><path d="M149.13,103.09a16.88,16.88,0,0,1-33.77,0V55.23H96v47.86a36.21,36.21,0,0,0,72.42,0V55.23H149.13Z" transform="translate(0 0)"></path><path d="M292.57,60.16c0-9.81,6.49-12.92,13.6-12.92,5.73,0,13.3,4.36,18.25,9.65L337.1,41.95c-6.33-8.56-19.17-14.48-29.68-14.48-21,0-36.19,12.3-36.19,32.69,0,37.83,46.24,25.83,46.24,47,0,6.53-6.34,12.3-13.6,12.3-11.45,0-15.16-5.6-20.42-11.52l-14.07,14.63c9,11.05,20.1,16.66,33.4,16.66,19.95,0,36-12.45,36-31.91,0-42-46.24-28.95-46.24-47.16" transform="translate(0 0)"></path><path d="M578.63,121.36c-11.44,0-14.69-4.95-14.69-12.53V75.28h17.78v-17H563.94V35.85l-19.63,8.81V113c0,17.48,12.06,26.29,28.6,26.29a39.62,39.62,0,0,0,7.74-.62l4.79-17.63c-2.16.15-4.64.3-6.81.3" transform="translate(0 0)"></path><path d="M222.82,55.79c-9.59,0-16.28,2.78-22.75,9.13V28.14H180.68V96.31c0,25.52,18.45,43,39.18,43,23,0,43.23-17.79,43.23-41.75,0-23.66-18.62-41.76-40.27-41.76m-.12,64a22,22,0,1,1,22-22,22,22,0,0,1-22,22" transform="translate(0 0)"></path><path d="M433.36,96.54c0-24-20.19-41.75-43.23-41.75-20.73,0-39.18,17.48-39.18,43V166h19.39V129.17c6.46,6.34,13.16,9.13,22.74,9.13,21.65,0,40.27-18.09,40.27-41.76M415,96.3a22,22,0,1,1-22-22,22,22,0,0,1,22,22" transform="translate(0 0)"></path></g><g class="cls-3"><path d="M496,53.85V34.37a15,15,0,0,0,8.65-13.52v-.45a15,15,0,0,0-15-15h-.45a15,15,0,0,0-15,15v.45a15,15,0,0,0,8.65,13.52V53.85a42.48,42.48,0,0,0-20.2,8.89L409.23,21.13a16.75,16.75,0,0,0,.6-4.21,16.9,16.9,0,1,0-16.92,16.87,16.72,16.72,0,0,0,8.32-2.26l52.61,40.93a42.61,42.61,0,0,0,.65,48l-16,16a13.74,13.74,0,0,0-4-.65,13.88,13.88,0,1,0,13.89,13.89,13.7,13.7,0,0,0-.65-4l15.83-15.83A42.68,42.68,0,1,0,496,53.85m-6.56,64.06A21.9,21.9,0,1,1,511.36,96a21.9,21.9,0,0,1-21.9,21.9" transform="translate(0 0)"></path></g></g></symbol><use href="#59f986be-b590-4fed-b422-7910fb8885eb"></use></svg>