<svg xmlns="http://www.w3.org/2000/svg" width="427" height="98" fill="none"><path fill="#949494" d="M55.42 0H42.26A42.31 42.31 0 0 0 0 42.27a42.31 42.31 0 0 0 42.26 42.26h13.21a42.31 42.31 0 0 0 42.27-42.26A42.31 42.31 0 0 0 55.42 0ZM5.23 42.27a37 37 0 0 1 37-37c2.067 0 4.131.17 6.17.51a36.83 36.83 0 0 1 30.82 36.47 23.819 23.819 0 0 1-19.83 23.44 29 29 0 0 0 11.9-23.44A29 29 0 0 0 49.5 14.11a28.921 28.921 0 0 0-7.27-.92 29.09 29.09 0 0 0-29 29.06A42.148 42.148 0 0 0 32.9 78.02 37.05 37.05 0 0 1 5.26 42.27h-.03Zm43.59-22.83a23.74 23.74 0 0 1 17.17 22.83 23.74 23.74 0 0 1-17.17 22.82 23.74 23.74 0 0 1-17.17-22.82 23.74 23.74 0 0 1 17.17-22.83Zm6.6 59.81h-.15a37.993 37.993 0 0 1-6-.51 36.82 36.82 0 0 1-30.78-35.23v-1.24a23.8 23.8 0 0 1 19.83-23.44 29 29 0 0 0-11.91 23.44A28.999 28.999 0 0 0 48.2 70.4c2.373.618 4.817.928 7.27.92a29.09 29.09 0 0 0 29.06-29.05A42.12 42.12 0 0 0 64.86 6.5a37 37 0 0 1 27.59 35.77 37.001 37.001 0 0 1-37.03 36.98Z"/><path fill="#343434" d="M182.19 77.26H122v-6.79c7.42-1.25 8.88-3.86 8.88-6.37V21.57c0-4.8-1.46-6.79-8.88-7.31V7.47h37.83v6.79c-7.42.52-8.88 2.51-8.88 7.31v45c0 2.5.73 4.28 7 4.28h6.79c3.86 0 8.46-1.88 11.7-12.12h6.79l-1.04 18.53Zm5.43-25.6c0-16.92 12.23-29.46 29.57-29.46 18.29 0 28.84 12.33 28.84 27.37 0 16.83-12.43 29.16-29.46 29.16-18.6 0-28.95-12.02-28.95-27.07Zm38.77 3.87c0-16.61-5.75-26.54-11.39-26.54-5.33 0-7.52 6.69-7.52 16.3 0 16.93 5.85 26.65 11.38 26.65 5.24 0 7.53-6.59 7.53-16.41Zm26.12-3.87c0-16.92 12.23-29.46 29.57-29.46 18.29 0 28.84 12.33 28.84 27.37 0 16.83-12.43 29.16-29.47 29.16-18.59 0-28.94-12.02-28.94-27.07Zm38.77 3.87c0-16.61-5.75-26.54-11.39-26.54-5.33 0-7.53 6.69-7.53 16.3 0 16.93 5.86 26.65 11.39 26.65 5.23 0 7.53-6.59 7.53-16.41Zm84.14-6.79c0 18.28-11.07 30-27.06 30a23.488 23.488 0 0 1-9.41-1.78v7.73c0 3.87 1.57 5.44 8.68 6.48V98h-34.17v-6.79c5.43-1.25 6.06-2.61 6.06-6.48v-46c0-2.72-.94-4.29-4.39-5.85l-1.67-.73v-5.44l21.31-4.49h4.18v6.69a14.353 14.353 0 0 1 12.44-6.69C368 22.2 375.42 35 375.42 48.74Zm-20.06 3.76c0-10.87-3-20.27-10.24-20.27-3.14 0-3.66-.21-6.17 1.67v21c0 12.44 2 16.1 7.42 16.1 5.02 0 8.99-6.17 8.99-18.5Zm70.56-24.14-9.61 13.17c-4.6-9.2-9-13.06-14.21-13.06-3.14 0-7.21 1.88-7.21 5.12 0 11 32.7 3.86 32.08 28.11-.32 8.77-8.78 17-23.41 17-12.75 0-23.4-6.38-26-8.68l11.29-11.8c6.27 9.82 11.39 14.21 16.4 14.21 2.61 0 7.21-1.15 7.32-6.27 0-11.81-32.29-2.3-32.19-26 0-11.18 9.3-18 24.14-18 11.68.04 19.21 4.11 21.4 6.2Z"/></svg>
