<svg xmlns="http://www.w3.org/2000/svg" height="32" viewBox="0 0 115 32" width="115" xmlns:xlink="http://www.w3.org/1999/xlink">
 <path d="M12.604 10.948c-2.602 0-4.798 2.115-4.798 4.799a4.755 4.755 0 0 0 4.798 4.798c2.602 0 4.797-2.115 4.797-4.798 0-2.684-2.195-4.799-4.797-4.799zm-7.481 4.717c0-4.066 3.334-7.4 7.4-7.4 4.065 0 7.399 3.334 7.399 7.4 0 .244 0 .57-.081.814-.082.731.488 1.3 1.22 1.3 1.22 0 1.382-1.544 1.382-2.114 0-5.449-4.473-9.922-9.92-9.922-5.449 0-9.92 4.473-9.92 9.922 0 5.45 4.471 9.922 9.92 9.922 2.927 0 5.529-1.22 7.318-3.253l2.032 1.708c-2.195 2.603-5.61 4.23-9.27 4.23A12.564 12.564 0 0 1 0 15.664C0 8.752 5.61 3.06 12.604 3.06c6.911 0 12.522 5.693 12.522 12.606 0 2.765-1.301 5.043-3.984 5.043-1.139 0-1.87-.57-2.277-1.139-1.301 2.115-3.66 3.497-6.343 3.497a7.375 7.375 0 0 1-7.4-7.4zm7.48-2.196c1.22 0 2.196.976 2.196 2.196 0 1.22-.976 2.196-2.195 2.196a2.187 2.187 0 0 1-2.196-2.196c0-1.22.976-2.196 2.196-2.196z" fill="#6c6c6c" fill-rule="nonzero">
 </path>
 <path d="M28.347 11.034v13.515h3.078v-6.92c0-2.85.729-4.071 2.51-4.071 1.377 0 2.025 1.14 2.025 3.582v7.49h3.077v-6.92c0-2.85.73-4.071 2.51-4.071 1.458 0 2.025.977 2.025 3.582v7.49h3.078v-8.548c0-3.664-1.539-5.536-4.535-5.536-1.62 0-2.997.732-3.969 1.954-.81-1.303-2.105-1.954-3.563-1.954-1.296 0-2.025.325-3.158 1.628v-1.221h-3.078z M58.23 11.034v1.547c-1.376-1.384-2.51-1.954-4.21-1.954-3.645 0-6.318 3.012-6.318 7.001 0 4.234 2.673 7.246 6.398 7.246 1.62 0 2.673-.488 4.13-1.79v1.383h3.078V11.034H58.23zm-3.644 2.36c2.268 0 3.806 1.792 3.806 4.316 0 2.605-1.538 4.396-3.806 4.396-2.186 0-3.725-1.791-3.725-4.396 0-2.443 1.62-4.315 3.725-4.315z M66.896 11.034h-3.078v13.515h3.078V11.034zm-1.54-7.572a2.01 2.01 0 0 0-2.024 2.035c0 1.14.891 2.036 2.025 2.036a2.01 2.01 0 0 0 2.025-2.036 2.01 2.01 0 0 0-2.025-2.035z M69.73.043h3.077v24.424H69.73z" fill="#808080">
 </path>
 <path d="M88.113 11.034h-3.077v1.547c-1.053-1.222-2.591-1.873-4.211-1.873-3.644 0-6.317 3.012-6.317 7.246 0 4.07 2.673 7.002 6.236 7.002 1.7 0 2.996-.57 4.211-1.954v1.872c0 2.85-1.134 4.234-3.401 4.234-1.215 0-2.43-.57-2.997-1.547-.324-.57-.405-1.058-.486-2.198h-2.996c0 4.07 2.51 6.594 6.479 6.594 2.267 0 4.292-.895 5.426-2.605.89-1.303 1.133-2.442 1.133-5.13V11.035zm-6.721 2.36c2.267 0 3.725 1.792 3.725 4.316 0 2.605-1.539 4.396-3.725 4.396-2.268 0-3.726-1.71-3.726-4.315 0-2.605 1.458-4.396 3.726-4.396z M93.053 11.034h-3.077v7.816c0 2.116.405 3.256 1.377 4.396 1.053 1.14 2.591 1.71 4.292 1.71 1.782 0 3.24-.57 4.373-1.71 1.053-1.14 1.377-2.28 1.377-4.396v-7.816h-3.078v7.734c0 2.28-.81 3.338-2.672 3.338-1.782 0-2.592-1.058-2.592-3.338v-7.734z M103.5 11.034v13.515h3.078v-6.514c0-3.338.729-4.559 2.834-4.559 1.944 0 2.51.896 2.51 3.501v7.572H115v-8.305c0-3.745-1.539-5.617-4.859-5.617-1.458 0-2.43.407-3.644 1.628v-1.221H103.5z" fill="#6e6e6e">
 </path>
</svg>