<svg width="138" height="40" viewBox="0 0 138 40" fill="none" xmlns="http://www.w3.org/2000/svg">
<path d="M6.80931 29.3284L3.42426 31.3383C2.96506 31.6406 3.17489 32.1602 3.42426 32.2648L16.5706 39.6385C17.3472 40.0741 18.3039 40.0741 19.0805 39.6385L32.4009 32.1672C32.8045 31.9279 32.7383 31.4414 32.4009 31.2774L28.8218 29.3415C28.5196 29.142 27.846 29.2084 27.6074 29.3708L19.0805 34.1534C18.3039 34.5891 17.3472 34.5891 16.5706 34.1534L7.96818 29.3284C7.64749 29.1309 7.13949 29.1421 6.80931 29.3284Z" fill="#ababab"/>
<path d="M16.5697 0.361456C17.3463 -0.0740985 18.3029 -0.0740985 19.0795 0.361456C19.0795 0.361456 29.0461 5.95166 29.6661 6.29938C30.0887 6.51343 30.127 7.08807 29.6661 7.3472C28.9682 7.73722 28.0321 8.25986 27.2553 8.69346C26.348 9.20001 25.2433 9.19851 24.337 8.69011L19.0795 5.74125C18.3029 5.3057 17.3463 5.3057 16.5697 5.74125L11.3061 8.69362C10.399 9.20234 9.29341 9.20329 8.38541 8.69632C7.57794 8.24547 6.59841 7.69887 5.89255 7.30598C5.50102 7.13766 5.41953 6.63799 5.89255 6.35018L16.5697 0.361456Z" fill="#ababab"/>
<path d="M34.3924 9.2991C35.1689 9.73464 35.6473 10.5395 35.6473 11.4107V28.5895C35.6473 29.4398 35.1153 29.5983 34.548 29.3014L30.6276 27.1832V15.6339L19.0785 22.1117C18.302 22.5472 17.3453 22.5472 16.5688 22.1117L5.01962 15.6339V27.1818L1.45725 29.2989C1.03269 29.5692 0 29.6543 0 28.5895V11.4107C0 10.5395 0.478367 9.73464 1.2549 9.2991C2.50431 8.64413 3.79531 9.2991 3.79531 9.2991L17.8236 17.1846L31.83 9.2991C31.83 9.2991 33.0738 8.54813 34.3924 9.2991Z" fill="#ababab"/>
<path fill-rule="evenodd" clip-rule="evenodd" d="M85.0308 8.96521C84.0869 8.96521 83.3216 9.73124 83.3216 10.6762C83.3216 11.6211 84.0869 12.3871 85.0308 12.3871C85.9749 12.3871 86.7401 11.6211 86.7401 10.6762C86.7401 9.73124 85.9749 8.96521 85.0308 8.96521ZM89.3996 8.96523C89.3065 8.96523 89.2311 9.04079 89.2311 9.134V25.9336C89.2311 26.0268 89.3065 26.1023 89.3996 26.1023H91.9952C92.0883 26.1023 92.1638 26.0268 92.1638 25.9336V9.134C92.1638 9.04079 92.0883 8.96523 91.9952 8.96523H89.3996ZM95.1497 8.96523C95.0565 8.96523 94.9811 9.04079 94.9811 9.134V25.9336C94.9811 26.0268 95.0565 26.1024 95.1497 26.1024H97.7452C97.8383 26.1024 97.9138 26.0268 97.9138 25.9336V16.9704H100.539C100.632 16.9704 100.708 16.8949 100.708 16.8017V14.3153C100.708 14.2221 100.632 14.1465 100.539 14.1465H97.9138V9.134C97.9138 9.04079 97.8383 8.96523 97.7452 8.96523H95.1497ZM54.5707 13.634C51.7098 13.634 49.3905 15.9556 49.3905 18.8195V25.9337C49.3905 26.0269 49.466 26.1024 49.5591 26.1024H52.1546C52.2477 26.1024 52.3232 26.0269 52.3232 25.9337V18.8195C52.3232 17.577 53.3295 16.5698 54.5707 16.5698C55.8119 16.5698 56.8181 17.577 56.8181 18.8195V25.9337C56.8181 26.0269 56.8936 26.1024 56.9867 26.1024H59.5822C59.6754 26.1024 59.7508 26.0269 59.7508 25.9337L59.7511 18.8195C59.7511 17.577 60.7573 16.5698 61.9985 16.5698C63.2397 16.5698 64.2459 17.577 64.2459 18.8195V25.9337C64.2459 26.0269 64.3213 26.1024 64.4144 26.1024H67.01C67.1031 26.1024 67.1787 26.0269 67.1787 25.9337V18.8195C67.1787 15.9556 64.8594 13.634 61.9985 13.634C60.5419 13.634 59.2255 14.236 58.2845 15.2045C57.3436 14.236 56.0273 13.634 54.5707 13.634ZM74.8713 13.634C71.3994 13.634 68.5847 16.4515 68.5847 19.9272V20.1892C68.5847 23.6649 71.3994 26.4824 74.8713 26.4824C76.1183 26.4824 77.2647 26.045 78.2253 25.3553V25.9337C78.2253 26.0269 78.3008 26.1024 78.3939 26.1024H80.9895C81.0826 26.1024 81.1581 26.0269 81.1581 25.9337V19.9272C81.1581 16.4515 78.3434 13.634 74.8713 13.634ZM114.239 13.634C110.768 13.634 107.953 16.4515 107.953 19.9272V20.1892C107.953 23.6649 110.768 26.4824 114.239 26.4824C115.462 26.4824 116.669 25.9369 117.594 25.2381V25.9337C117.594 26.0269 117.669 26.1024 117.762 26.1024H120.358C120.451 26.1024 120.526 26.0269 120.526 25.9337V19.9272C120.526 16.4515 117.712 13.634 114.239 13.634ZM128.988 13.634C125.516 13.634 122.702 16.4515 122.702 19.9272V30.8886C122.702 30.9818 122.777 31.0574 122.87 31.0574H125.466C125.559 31.0574 125.635 30.9818 125.635 30.8886V25.513C126.605 26.127 127.755 26.4824 128.988 26.4824C132.46 26.4824 135.275 23.6649 135.275 20.1892V19.9272C135.275 16.4515 132.46 13.634 128.988 13.634ZM107.062 14.0494C103.977 14.0494 101.476 16.5531 101.476 19.6415V25.9337C101.476 26.0269 101.552 26.1024 101.645 26.1024H104.24C104.333 26.1024 104.409 26.0269 104.409 25.9337V19.6415C104.409 18.1745 105.596 16.9852 107.062 16.9852C107.107 16.9852 107.15 16.9674 107.182 16.9357C107.213 16.9041 107.231 16.8612 107.231 16.8164V14.2181C107.231 14.1249 107.155 14.0494 107.062 14.0494ZM83.7619 14.1465C83.6688 14.1465 83.5932 14.2221 83.5932 14.3153V25.9337C83.5932 26.0269 83.6688 26.1025 83.7619 26.1025H86.3575C86.4506 26.1025 86.526 26.0269 86.526 25.9337V14.3153C86.526 14.2221 86.4506 14.1465 86.3575 14.1465H83.7619ZM71.5174 19.9272C71.5174 18.0729 73.0191 16.5698 74.8713 16.5698C76.7237 16.5698 78.2253 18.0729 78.2253 19.9272V20.1892C78.2253 22.0435 76.7237 23.5466 74.8713 23.5466C73.0191 23.5466 71.5174 22.0435 71.5174 20.1892V19.9272ZM110.886 19.9272C110.886 18.0729 112.387 16.5698 114.239 16.5698C116.092 16.5698 117.594 18.0729 117.594 19.9272V20.1892C117.594 22.0435 116.092 23.5466 114.239 23.5466C112.387 23.5466 110.886 22.0435 110.886 20.1892V19.9272ZM125.635 19.9272C125.635 18.0729 127.136 16.5698 128.988 16.5698C130.84 16.5698 132.342 18.0729 132.342 19.9272V20.1892C132.342 22.0435 130.84 23.5466 128.988 23.5466C127.136 23.5466 125.635 22.0435 125.635 20.1892V19.9272Z" fill="#ababab"/>
</svg>
