<?xml version="1.0" encoding="UTF-8"?>
<svg id="Sendgrid" xmlns="http://www.w3.org/2000/svg" viewBox="0 0 166 59">
  <defs>
    <style>
      .cls-1 {
        fill: #343434;
      }

      .cls-2 {
        fill: #aeaeae;
      }
    </style>
  </defs>
  <g>
    <path class="cls-1" d="m57.51,43.01v-2.13c1.64,1.62,3.53,2.47,5.55,2.47,1.71,0,2.69-.82,2.69-2.11,0-1.62-1.56-1.8-3.35-2-2.31-.27-5.09-.62-5.09-3.64,0-2.53,2.07-4,4.8-4s4.33.91,5.42,1.75v2.11c-1.4-1.47-3.24-2.2-5.35-2.22-1.91,0-2.84.89-2.84,2.18,0,1.49,1.62,1.71,3.42,1.91,2.33.27,5.07.67,5.07,3.75,0,2.38-1.82,3.95-4.67,3.95s-4.33-.89-5.64-2.02Z"/>
    <path class="cls-1" d="m69.53,38.48v-.31c0-4.07,2.53-6.58,6.04-6.58,3.31,0,5.69,2.02,5.69,6.24v1h-9.64c.18,3.2,2.33,4.47,5.27,4.47,1.96,0,3.22-.71,4.11-1.44v1.87c-.71.56-2.02,1.31-4.47,1.31-4.35,0-7-2.4-7-6.55Zm2.11-1.2h7.53c-.13-2.71-1.47-4.04-3.62-4.04s-3.62,1.31-3.91,4.04Z"/>
    <path class="cls-1" d="m83.44,31.82h2.04v4.38c.44-3.29,2.11-4.6,4.58-4.6,3.33,0,4.93,2.07,4.93,5.6v7.62h-2.07v-7.2c0-2.64-1.04-4.31-3.62-4.31-2.16,0-3.8,1.64-3.8,4.8v6.71h-2.07v-13Z"/>
    <path class="cls-1" d="m97.11,38.46v-.31c0-4.09,2.35-6.55,5.64-6.55,2.64,0,4.27,1.47,4.8,4.44v-8.67h2.07v17.44h-2.07v-4.22c-.51,2.98-2.13,4.44-4.87,4.44-3.31,0-5.58-2.44-5.58-6.58Zm10.51-.09v-.16c0-3.15-1.69-4.95-4.22-4.95s-4.18,1.8-4.18,4.95v.16c0,3.22,1.73,4.96,4.18,4.96s4.22-1.71,4.22-4.96Z"/>
    <path class="cls-1" d="m111.27,47.19c0-1.44,1.11-2.49,3.71-2.67.02,0,.04-.02.04-.04s-.02-.04-.04-.04c-2.29,0-3.13-.56-3.13-1.67,0-1.02,1.07-1.98,3.67-2,.02,0,.04-.02.04-.04s-.02-.04-.04-.04c-2.27-.33-3.6-1.93-3.6-4.35,0-2.84,2.18-4.73,5.38-4.73,1.49,0,2.2.22,3.15.22h3.44v1.69h-2.64c.84.6,1.38,1.75,1.38,3.02,0,2.49-1.93,4.49-5.22,4.49h-.8c-1.78,0-2.71.38-2.71,1.04,0,.71.62.82,2.98.82h2.38c3.04,0,4.58.78,4.58,3s-1.91,3.98-6.71,3.98h-.31c-4.24,0-5.53-1.07-5.53-2.67Zm10.53-1c0-1.2-.98-1.51-2.98-1.51h-2.11c-2.53,0-3.4.91-3.4,1.96,0,.96.96,1.62,3.69,1.62h.24c3.33,0,4.55-.8,4.55-2.07Zm-1.18-9.8c0-1.87-1.18-3.33-3.33-3.33s-3.35,1.29-3.35,3.33c0,1.78,1.18,3.13,3.35,3.13s3.33-1.35,3.33-3.13Z"/>
    <path class="cls-1" d="m125.62,31.82h2.04v4.6c.38-3.51,1.96-4.82,4.33-4.82.71,0,1.29.13,1.64.31v1.98c-.49-.33-1.22-.49-1.91-.49-2.24,0-4.04,1.62-4.04,5.02v6.4h-2.07v-13Z"/>
    <path class="cls-1" d="m135.22,29.04c0-.93.58-1.31,1.33-1.31.8,0,1.33.38,1.33,1.31s-.53,1.29-1.33,1.29c-.76,0-1.33-.4-1.33-1.29Zm.31,2.78h2.07v13h-2.07v-13Z"/>
    <path class="cls-1" d="m139.8,38.46v-.31c0-4.09,2.35-6.55,5.64-6.55,2.64,0,4.27,1.47,4.8,4.44v-8.67h2.07v17.44h-2.07v-4.22c-.51,2.98-2.13,4.44-4.87,4.44-3.31,0-5.58-2.44-5.58-6.58Zm10.51-.09v-.16c0-3.15-1.69-4.95-4.22-4.95s-4.18,1.8-4.18,4.95v.16c0,3.22,1.73,4.96,4.18,4.96s4.22-1.71,4.22-4.96Z"/>
  </g>
  <g id="Icon_Updated_Keylines" data-name="Icon, Updated Keylines">
    <path class="cls-2" d="m35,15h-8c-1.1,0-2,.9-2,2v6c0,1.1.9,2,2,2h6c1.1,0,2,.9,2,2v6c0,1.1.9,2,2,2h6c1.1,0,2-.9,2-2v-17c0-.55-.45-1-1-1h-9Z"/>
    <path class="cls-2" d="m25,45h8c1.1,0,2-.9,2-2v-6c0-1.1-.9-2-2-2h-6c-1.1,0-2-.9-2-2v-6c0-1.1-.9-2-2-2h-6c-1.1,0-2,.9-2,2v17c0,.55.45,1,1,1h9Z"/>
  </g>
  <g>
    <rect class="cls-1" x="92.8" y="11.37" width="4.51" height="2.86" rx=".24" ry=".24"/>
    <rect class="cls-1" x="92.78" y="14.94" width="4.51" height="10.9" rx=".24" ry=".24"/>
    <rect class="cls-1" x="87.48" y="11.37" width="4.51" height="14.47" rx=".24" ry=".24"/>
    <rect class="cls-1" x="82.18" y="11.37" width="4.51" height="2.86" rx=".24" ry=".24"/>
    <path class="cls-1" d="m86.44,14.94h-8.16c-.14,0-.22.06-.26.22l-.93,4.49-.95-4.49c-.02-.14-.12-.22-.26-.22h-3.81c-.14,0-.24.08-.26.22l-.95,4.53-.89-4.53c-.04-.16-.12-.22-.26-.22h-6.53v-3.4c0-.18-.12-.26-.32-.2l-3.91,1.27c-.14.04-.22.16-.22.3v1.49c0,.42-.22.6-.64.6h-.85c-.14,0-.24.1-.24.24v2.92c0,.14.1.24.24.24h1.43v3.67c0,2.56.93,3.93,4.01,3.93,1.19,0,2.12-.2,2.64-.44.16-.08.2-.18.2-.34v-2.86c0-.16-.14-.24-.34-.14-.26.12-.52.18-.81.18-.79,0-1.19-.3-1.19-1.29v-2.72h2.08c.14,0,.24-.1.24-.24v-2.54l2.64,10.03c.04.14.14.2.3.2h3.89c.14,0,.2-.06.24-.2l1.27-4.59,1.23,4.59c.04.14.1.2.24.2h3.95c.16,0,.26-.06.3-.2l2.62-9.95v9.91c0,.14.1.24.24.24h4.03c.14,0,.24-.1.24-.24v-10.42c0-.14-.1-.24-.24-.24Z"/>
    <path class="cls-1" d="m103.94,14.76c-3.63,0-6.04,2.24-6.04,5.48v.26c0,3.24,2.4,5.5,6.04,5.5s6.04-2.26,6.04-5.5v-.26c0-3.24-2.4-5.48-6.04-5.48Zm1.49,5.68c0,1.47-.62,2.06-1.49,2.06s-1.49-.6-1.49-2.06v-.14c0-1.49.62-2.08,1.49-2.08s1.49.6,1.49,2.08v.14Z"/>
  </g>
</svg>